<svg width="270" height="323" viewBox="0 0 270 323" fill="none" xmlns="http://www.w3.org/2000/svg">
<circle cx="135" cy="75" r="74.5" stroke="#0066FF"/>
<path d="M125.25 68.5V68H124.75H116.207L120.229 63.9786L131.409 52.7986L134.5 49.7071L137.591 52.7986L148.771 63.9786L152.793 68H144.25H143.75V68.5V90.75H125.25V68.5ZM134.854 55.5397L134.5 55.1861L134.146 55.5397L126.415 63.2714L125.561 64.125H126.768H129.125V86.375V86.875H129.625H139.375H139.875V86.375V64.125H142.232H143.439L142.585 63.2714L134.854 55.5397ZM125.817 97.1925C126.181 96.8291 126.674 96.625 127.188 96.625H141.812C142.326 96.625 142.819 96.8291 143.183 97.1925C143.546 97.5558 143.75 98.0486 143.75 98.5625C143.75 99.0764 143.546 99.5692 143.183 99.9325C142.819 100.296 142.326 100.5 141.812 100.5H127.188C126.674 100.5 126.181 100.296 125.817 99.9325C125.454 99.5692 125.25 99.0764 125.25 98.5625C125.25 98.0486 125.454 97.5558 125.817 97.1925Z" fill="#0066FF" stroke="white"/>
<path d="M55.017 203V185.545H66.7784V188.588H58.7074V192.747H66.1733V195.79H58.7074V199.957H66.8125V203H55.017ZM73.3771 203.247C72.5419 203.247 71.7976 203.102 71.1442 202.812C70.4908 202.517 69.9737 202.082 69.593 201.509C69.218 200.929 69.0305 200.207 69.0305 199.344C69.0305 198.616 69.1641 198.006 69.4311 197.511C69.6982 197.017 70.0618 196.619 70.522 196.318C70.9822 196.017 71.505 195.79 72.0902 195.636C72.6811 195.483 73.3004 195.375 73.9482 195.312C74.7095 195.233 75.3232 195.159 75.7891 195.091C76.255 195.017 76.593 194.909 76.8033 194.767C77.0135 194.625 77.1186 194.415 77.1186 194.136V194.085C77.1186 193.545 76.9482 193.128 76.6072 192.832C76.272 192.537 75.7947 192.389 75.1754 192.389C74.522 192.389 74.0021 192.534 73.6158 192.824C73.2294 193.108 72.9737 193.466 72.8487 193.898L69.4908 193.625C69.6612 192.83 69.9964 192.142 70.4964 191.562C70.9964 190.977 71.6413 190.528 72.4311 190.216C73.2266 189.898 74.147 189.739 75.1925 189.739C75.9197 189.739 76.6158 189.824 77.2805 189.994C77.951 190.165 78.5447 190.429 79.0618 190.787C79.5845 191.145 79.9964 191.605 80.2976 192.168C80.5987 192.724 80.7493 193.392 80.7493 194.17V203H77.3061V201.185H77.2038C76.9936 201.594 76.7124 201.955 76.3601 202.267C76.0078 202.574 75.5845 202.815 75.0902 202.991C74.5959 203.162 74.0249 203.247 73.3771 203.247ZM74.4169 200.741C74.951 200.741 75.4226 200.636 75.8317 200.426C76.2408 200.21 76.5618 199.92 76.7947 199.557C77.0277 199.193 77.1442 198.781 77.1442 198.321V196.932C77.0305 197.006 76.8743 197.074 76.6754 197.136C76.4822 197.193 76.2635 197.247 76.0192 197.298C75.7749 197.344 75.5305 197.386 75.2862 197.426C75.0419 197.46 74.8203 197.491 74.6214 197.52C74.1953 197.582 73.8232 197.682 73.505 197.818C73.1868 197.955 72.9396 198.139 72.7635 198.372C72.5874 198.599 72.4993 198.884 72.4993 199.224C72.4993 199.719 72.6783 200.097 73.0362 200.358C73.3999 200.614 73.8601 200.741 74.4169 200.741ZM94.4581 193.642L91.1342 193.847C91.0774 193.562 90.9553 193.307 90.7678 193.08C90.5803 192.847 90.3331 192.662 90.0263 192.526C89.7251 192.384 89.3643 192.312 88.9439 192.312C88.3814 192.312 87.907 192.432 87.5206 192.67C87.1342 192.903 86.9411 193.216 86.9411 193.608C86.9411 193.92 87.0661 194.185 87.3161 194.401C87.5661 194.616 87.995 194.79 88.603 194.92L90.9723 195.398C92.245 195.659 93.1939 196.08 93.8189 196.659C94.4439 197.239 94.7564 198 94.7564 198.943C94.7564 199.801 94.5036 200.554 93.9979 201.202C93.4979 201.849 92.8104 202.355 91.9354 202.719C91.0661 203.077 90.0632 203.256 88.9268 203.256C87.1939 203.256 85.8132 202.895 84.7848 202.173C83.7621 201.446 83.1626 200.457 82.9865 199.207L86.5575 199.02C86.6655 199.548 86.9268 199.952 87.3416 200.23C87.7564 200.503 88.2876 200.639 88.9354 200.639C89.5717 200.639 90.0831 200.517 90.4695 200.273C90.8615 200.023 91.0604 199.702 91.0661 199.31C91.0604 198.98 90.9212 198.71 90.6484 198.5C90.3757 198.284 89.9553 198.119 89.3871 198.006L87.12 197.554C85.8416 197.298 84.8899 196.855 84.2649 196.224C83.6456 195.594 83.3359 194.79 83.3359 193.812C83.3359 192.972 83.5632 192.247 84.0178 191.639C84.478 191.031 85.1229 190.562 85.9524 190.233C86.7876 189.903 87.7649 189.739 88.8842 189.739C90.5376 189.739 91.8388 190.088 92.7876 190.787C93.7422 191.486 94.299 192.437 94.4581 193.642ZM99.2841 207.909C98.8239 207.909 98.392 207.872 97.9886 207.798C97.5909 207.73 97.2614 207.642 97 207.534L97.8182 204.824C98.2443 204.955 98.6278 205.026 98.9688 205.037C99.3153 205.048 99.6136 204.969 99.8636 204.798C100.119 204.628 100.327 204.338 100.486 203.929L100.699 203.375L96.0028 189.909H99.821L102.531 199.523H102.668L105.403 189.909H109.247L104.159 204.415C103.915 205.119 103.582 205.733 103.162 206.256C102.747 206.784 102.222 207.19 101.585 207.474C100.949 207.764 100.182 207.909 99.2841 207.909ZM127.509 185.545H131.2V196.881C131.2 198.153 130.896 199.267 130.288 200.222C129.685 201.176 128.842 201.92 127.756 202.455C126.671 202.983 125.407 203.247 123.964 203.247C122.515 203.247 121.248 202.983 120.163 202.455C119.077 201.92 118.234 201.176 117.631 200.222C117.029 199.267 116.728 198.153 116.728 196.881V185.545H120.418V196.565C120.418 197.23 120.563 197.821 120.853 198.338C121.148 198.855 121.563 199.261 122.097 199.557C122.631 199.852 123.254 200 123.964 200C124.68 200 125.302 199.852 125.83 199.557C126.364 199.261 126.776 198.855 127.066 198.338C127.362 197.821 127.509 197.23 127.509 196.565V185.545ZM134.168 207.909V189.909H137.747V192.108H137.909C138.068 191.756 138.298 191.398 138.599 191.034C138.906 190.665 139.304 190.358 139.793 190.114C140.287 189.864 140.901 189.739 141.634 189.739C142.588 189.739 143.469 189.989 144.276 190.489C145.082 190.983 145.727 191.73 146.21 192.73C146.693 193.724 146.935 194.972 146.935 196.472C146.935 197.932 146.699 199.165 146.227 200.17C145.761 201.17 145.125 201.929 144.318 202.446C143.517 202.957 142.619 203.213 141.625 203.213C140.92 203.213 140.321 203.097 139.827 202.864C139.338 202.631 138.938 202.338 138.625 201.986C138.312 201.628 138.074 201.267 137.909 200.903H137.798V207.909H134.168ZM137.722 196.455C137.722 197.233 137.83 197.912 138.045 198.491C138.261 199.071 138.574 199.523 138.983 199.847C139.392 200.165 139.889 200.324 140.474 200.324C141.065 200.324 141.565 200.162 141.974 199.838C142.384 199.509 142.693 199.054 142.903 198.474C143.119 197.889 143.227 197.216 143.227 196.455C143.227 195.699 143.122 195.034 142.912 194.46C142.702 193.886 142.392 193.437 141.983 193.114C141.574 192.79 141.071 192.628 140.474 192.628C139.884 192.628 139.384 192.784 138.974 193.097C138.571 193.409 138.261 193.852 138.045 194.426C137.83 195 137.722 195.676 137.722 196.455ZM155.253 208.182C154.077 208.182 153.068 208.02 152.227 207.696C151.392 207.378 150.727 206.943 150.233 206.392C149.739 205.841 149.418 205.222 149.27 204.534L152.628 204.082C152.73 204.344 152.892 204.588 153.114 204.815C153.335 205.043 153.628 205.224 153.991 205.361C154.361 205.503 154.81 205.574 155.338 205.574C156.128 205.574 156.778 205.381 157.29 204.994C157.807 204.614 158.065 203.974 158.065 203.077V200.682H157.912C157.753 201.045 157.514 201.389 157.196 201.713C156.878 202.037 156.469 202.301 155.969 202.506C155.469 202.71 154.872 202.812 154.179 202.812C153.196 202.812 152.301 202.585 151.494 202.131C150.693 201.67 150.054 200.969 149.577 200.026C149.105 199.077 148.869 197.878 148.869 196.429C148.869 194.946 149.111 193.707 149.594 192.713C150.077 191.719 150.719 190.974 151.52 190.48C152.327 189.986 153.21 189.739 154.17 189.739C154.903 189.739 155.517 189.864 156.011 190.114C156.506 190.358 156.903 190.665 157.205 191.034C157.511 191.398 157.747 191.756 157.912 192.108H158.048V189.909H161.653V203.128C161.653 204.241 161.381 205.173 160.835 205.923C160.29 206.673 159.534 207.236 158.568 207.611C157.608 207.991 156.503 208.182 155.253 208.182ZM155.33 200.085C155.915 200.085 156.409 199.94 156.812 199.651C157.222 199.355 157.534 198.935 157.75 198.389C157.972 197.838 158.082 197.179 158.082 196.412C158.082 195.645 157.974 194.98 157.759 194.418C157.543 193.849 157.23 193.409 156.821 193.097C156.412 192.784 155.915 192.628 155.33 192.628C154.733 192.628 154.23 192.79 153.821 193.114C153.412 193.432 153.102 193.875 152.892 194.443C152.682 195.011 152.577 195.668 152.577 196.412C152.577 197.168 152.682 197.821 152.892 198.372C153.108 198.918 153.418 199.341 153.821 199.642C154.23 199.937 154.733 200.085 155.33 200.085ZM164.543 203V189.909H168.062V192.193H168.199C168.438 191.381 168.838 190.767 169.401 190.352C169.963 189.932 170.611 189.722 171.344 189.722C171.526 189.722 171.722 189.733 171.932 189.756C172.142 189.778 172.327 189.81 172.486 189.849V193.071C172.315 193.02 172.08 192.974 171.778 192.935C171.477 192.895 171.202 192.875 170.952 192.875C170.418 192.875 169.94 192.991 169.52 193.224C169.105 193.452 168.776 193.77 168.531 194.179C168.293 194.588 168.173 195.06 168.173 195.594V203H164.543ZM177.721 203.247C176.886 203.247 176.141 203.102 175.488 202.812C174.835 202.517 174.317 202.082 173.937 201.509C173.562 200.929 173.374 200.207 173.374 199.344C173.374 198.616 173.508 198.006 173.775 197.511C174.042 197.017 174.406 196.619 174.866 196.318C175.326 196.017 175.849 195.79 176.434 195.636C177.025 195.483 177.644 195.375 178.292 195.312C179.053 195.233 179.667 195.159 180.133 195.091C180.599 195.017 180.937 194.909 181.147 194.767C181.357 194.625 181.462 194.415 181.462 194.136V194.085C181.462 193.545 181.292 193.128 180.951 192.832C180.616 192.537 180.138 192.389 179.519 192.389C178.866 192.389 178.346 192.534 177.96 192.824C177.573 193.108 177.317 193.466 177.192 193.898L173.835 193.625C174.005 192.83 174.34 192.142 174.84 191.562C175.34 190.977 175.985 190.528 176.775 190.216C177.57 189.898 178.491 189.739 179.536 189.739C180.263 189.739 180.96 189.824 181.624 189.994C182.295 190.165 182.888 190.429 183.406 190.787C183.928 191.145 184.34 191.605 184.641 192.168C184.942 192.724 185.093 193.392 185.093 194.17V203H181.65V201.185H181.548C181.337 201.594 181.056 201.955 180.704 202.267C180.352 202.574 179.928 202.815 179.434 202.991C178.94 203.162 178.369 203.247 177.721 203.247ZM178.761 200.741C179.295 200.741 179.766 200.636 180.175 200.426C180.585 200.21 180.906 199.92 181.138 199.557C181.371 199.193 181.488 198.781 181.488 198.321V196.932C181.374 197.006 181.218 197.074 181.019 197.136C180.826 197.193 180.607 197.247 180.363 197.298C180.119 197.344 179.874 197.386 179.63 197.426C179.386 197.46 179.164 197.491 178.965 197.52C178.539 197.582 178.167 197.682 177.849 197.818C177.531 197.955 177.283 198.139 177.107 198.372C176.931 198.599 176.843 198.884 176.843 199.224C176.843 199.719 177.022 200.097 177.38 200.358C177.744 200.614 178.204 200.741 178.761 200.741ZM192.734 203.213C191.739 203.213 190.839 202.957 190.032 202.446C189.231 201.929 188.594 201.17 188.123 200.17C187.657 199.165 187.424 197.932 187.424 196.472C187.424 194.972 187.665 193.724 188.148 192.73C188.631 191.73 189.273 190.983 190.075 190.489C190.881 189.989 191.765 189.739 192.725 189.739C193.458 189.739 194.069 189.864 194.558 190.114C195.052 190.358 195.45 190.665 195.751 191.034C196.058 191.398 196.29 191.756 196.45 192.108H196.56V185.545H200.183V203H196.603V200.903H196.45C196.279 201.267 196.038 201.628 195.725 201.986C195.418 202.338 195.018 202.631 194.523 202.864C194.035 203.097 193.438 203.213 192.734 203.213ZM193.884 200.324C194.469 200.324 194.964 200.165 195.367 199.847C195.776 199.523 196.089 199.071 196.305 198.491C196.526 197.912 196.637 197.233 196.637 196.455C196.637 195.676 196.529 195 196.313 194.426C196.097 193.852 195.785 193.409 195.376 193.097C194.967 192.784 194.469 192.628 193.884 192.628C193.288 192.628 192.785 192.79 192.376 193.114C191.967 193.437 191.657 193.886 191.447 194.46C191.237 195.034 191.131 195.699 191.131 196.455C191.131 197.216 191.237 197.889 191.447 198.474C191.663 199.054 191.972 199.509 192.376 199.838C192.785 200.162 193.288 200.324 193.884 200.324ZM209.134 203.256C207.787 203.256 206.628 202.983 205.656 202.438C204.69 201.886 203.946 201.108 203.423 200.102C202.901 199.091 202.639 197.895 202.639 196.514C202.639 195.168 202.901 193.986 203.423 192.969C203.946 191.952 204.682 191.159 205.631 190.591C206.585 190.023 207.705 189.739 208.989 189.739C209.852 189.739 210.656 189.878 211.401 190.156C212.151 190.429 212.804 190.841 213.361 191.392C213.923 191.943 214.361 192.636 214.673 193.472C214.986 194.301 215.142 195.273 215.142 196.386V197.384H204.088V195.134H211.724C211.724 194.611 211.611 194.148 211.384 193.744C211.156 193.341 210.841 193.026 210.438 192.798C210.04 192.565 209.577 192.449 209.048 192.449C208.497 192.449 208.009 192.577 207.582 192.832C207.162 193.082 206.832 193.42 206.594 193.847C206.355 194.267 206.233 194.736 206.227 195.253V197.392C206.227 198.04 206.347 198.599 206.585 199.071C206.83 199.543 207.173 199.906 207.616 200.162C208.06 200.418 208.585 200.545 209.193 200.545C209.597 200.545 209.966 200.489 210.301 200.375C210.636 200.261 210.923 200.091 211.162 199.864C211.401 199.636 211.582 199.358 211.707 199.028L215.065 199.25C214.895 200.057 214.545 200.761 214.017 201.364C213.494 201.96 212.818 202.426 211.989 202.761C211.165 203.091 210.213 203.256 209.134 203.256Z" fill="#151515"/>
<path d="M1.40909 255V243.364H8.43182V244.614H2.81818V248.545H8.06818V249.795H2.81818V253.75H8.52273V255H1.40909ZM13.358 255.205C12.8049 255.205 12.303 255.1 11.8523 254.892C11.4015 254.68 11.0436 254.375 10.7784 253.977C10.5133 253.576 10.3807 253.091 10.3807 252.523C10.3807 252.023 10.4792 251.617 10.6761 251.307C10.8731 250.992 11.1364 250.746 11.4659 250.568C11.7955 250.39 12.1591 250.258 12.5568 250.17C12.9583 250.08 13.3617 250.008 13.767 249.955C14.2973 249.886 14.7273 249.835 15.0568 249.801C15.3902 249.763 15.6326 249.701 15.7841 249.614C15.9394 249.527 16.017 249.375 16.017 249.159V249.114C16.017 248.553 15.8636 248.117 15.5568 247.807C15.2538 247.496 14.7936 247.341 14.1761 247.341C13.536 247.341 13.0341 247.481 12.6705 247.761C12.3068 248.042 12.0511 248.341 11.9034 248.659L10.6307 248.205C10.858 247.674 11.161 247.261 11.5398 246.966C11.9223 246.667 12.339 246.458 12.7898 246.341C13.2443 246.22 13.6913 246.159 14.1307 246.159C14.411 246.159 14.733 246.193 15.0966 246.261C15.464 246.326 15.8182 246.46 16.1591 246.665C16.5038 246.869 16.7898 247.178 17.017 247.591C17.2443 248.004 17.358 248.557 17.358 249.25V255H16.017V253.818H15.9489C15.858 254.008 15.7064 254.21 15.4943 254.426C15.2822 254.642 15 254.826 14.6477 254.977C14.2955 255.129 13.8655 255.205 13.358 255.205ZM13.5625 254C14.0928 254 14.5398 253.896 14.9034 253.688C15.2708 253.479 15.5473 253.21 15.733 252.881C15.9223 252.551 16.017 252.205 16.017 251.841V250.614C15.9602 250.682 15.8352 250.744 15.642 250.801C15.4527 250.854 15.233 250.902 14.983 250.943C14.7367 250.981 14.4962 251.015 14.2614 251.045C14.0303 251.072 13.8428 251.095 13.6989 251.114C13.3504 251.159 13.0246 251.233 12.7216 251.335C12.4223 251.434 12.1799 251.583 11.9943 251.784C11.8125 251.981 11.7216 252.25 11.7216 252.591C11.7216 253.057 11.8939 253.409 12.2386 253.648C12.5871 253.883 13.0284 254 13.5625 254ZM25.9872 248.227L24.7827 248.568C24.7069 248.367 24.5952 248.172 24.4474 247.983C24.3035 247.79 24.1065 247.631 23.8565 247.506C23.6065 247.381 23.2865 247.318 22.8963 247.318C22.3622 247.318 21.9171 247.441 21.5611 247.688C21.2088 247.93 21.0327 248.239 21.0327 248.614C21.0327 248.947 21.1539 249.21 21.3963 249.403C21.6387 249.597 22.0175 249.758 22.5327 249.886L23.8281 250.205C24.6084 250.394 25.1899 250.684 25.5724 251.074C25.955 251.46 26.1463 251.958 26.1463 252.568C26.1463 253.068 26.0024 253.515 25.7145 253.909C25.4304 254.303 25.0327 254.614 24.5213 254.841C24.0099 255.068 23.4152 255.182 22.7372 255.182C21.8471 255.182 21.1103 254.989 20.527 254.602C19.9437 254.216 19.5743 253.652 19.419 252.909L20.6918 252.591C20.813 253.061 21.0421 253.413 21.3793 253.648C21.7202 253.883 22.1652 254 22.7145 254C23.3395 254 23.8357 253.867 24.2031 253.602C24.5743 253.333 24.7599 253.011 24.7599 252.636C24.7599 252.333 24.6539 252.08 24.4418 251.875C24.2296 251.667 23.9039 251.511 23.4645 251.409L22.0099 251.068C21.2107 250.879 20.6236 250.585 20.2486 250.188C19.8774 249.786 19.6918 249.284 19.6918 248.682C19.6918 248.189 19.83 247.754 20.1065 247.375C20.3868 246.996 20.7675 246.699 21.2486 246.483C21.7334 246.267 22.2827 246.159 22.8963 246.159C23.7599 246.159 24.438 246.348 24.9304 246.727C25.4266 247.106 25.7789 247.606 25.9872 248.227ZM29.0284 258.273C28.8011 258.273 28.5985 258.254 28.4205 258.216C28.2424 258.182 28.1193 258.148 28.0511 258.114L28.392 256.932C28.7178 257.015 29.0057 257.045 29.2557 257.023C29.5057 257 29.7273 256.888 29.9205 256.688C30.1174 256.491 30.2973 256.17 30.4602 255.727L30.7102 255.045L27.483 246.273H28.9375L31.3466 253.227H31.4375L33.8466 246.273H35.3011L31.5966 256.273C31.4299 256.723 31.2235 257.097 30.9773 257.392C30.7311 257.691 30.4451 257.913 30.1193 258.057C29.7973 258.201 29.4337 258.273 29.0284 258.273ZM45.3665 246.273V247.409H40.8438V246.273H45.3665ZM42.1619 244.182H43.5028V252.5C43.5028 252.879 43.5578 253.163 43.6676 253.352C43.7813 253.538 43.9252 253.663 44.0994 253.727C44.2775 253.788 44.465 253.818 44.6619 253.818C44.8097 253.818 44.9309 253.811 45.0256 253.795C45.1203 253.777 45.196 253.761 45.2528 253.75L45.5256 254.955C45.4347 254.989 45.3078 255.023 45.1449 255.057C44.982 255.095 44.7756 255.114 44.5256 255.114C44.1468 255.114 43.7756 255.032 43.4119 254.869C43.0521 254.706 42.7528 254.458 42.5142 254.125C42.2794 253.792 42.1619 253.371 42.1619 252.864V244.182ZM50.8352 255.182C50.0473 255.182 49.3561 254.994 48.7614 254.619C48.1705 254.244 47.7083 253.72 47.375 253.045C47.0455 252.371 46.8807 251.583 46.8807 250.682C46.8807 249.773 47.0455 248.979 47.375 248.301C47.7083 247.623 48.1705 247.097 48.7614 246.722C49.3561 246.347 50.0473 246.159 50.8352 246.159C51.6231 246.159 52.3125 246.347 52.9034 246.722C53.4981 247.097 53.9602 247.623 54.2898 248.301C54.6231 248.979 54.7898 249.773 54.7898 250.682C54.7898 251.583 54.6231 252.371 54.2898 253.045C53.9602 253.72 53.4981 254.244 52.9034 254.619C52.3125 254.994 51.6231 255.182 50.8352 255.182ZM50.8352 253.977C51.4337 253.977 51.9261 253.824 52.3125 253.517C52.6989 253.21 52.9848 252.807 53.1705 252.307C53.3561 251.807 53.4489 251.265 53.4489 250.682C53.4489 250.098 53.3561 249.555 53.1705 249.051C52.9848 248.547 52.6989 248.14 52.3125 247.83C51.9261 247.519 51.4337 247.364 50.8352 247.364C50.2367 247.364 49.7443 247.519 49.358 247.83C48.9716 248.14 48.6856 248.547 48.5 249.051C48.3144 249.555 48.2216 250.098 48.2216 250.682C48.2216 251.265 48.3144 251.807 48.5 252.307C48.6856 252.807 48.9716 253.21 49.358 253.517C49.7443 253.824 50.2367 253.977 50.8352 253.977ZM66.8366 251.432V246.273H68.1776V255H66.8366V253.523H66.7457C66.5412 253.966 66.223 254.343 65.7912 254.653C65.3594 254.96 64.8139 255.114 64.1548 255.114C63.6094 255.114 63.1245 254.994 62.7003 254.756C62.276 254.513 61.9427 254.15 61.7003 253.665C61.4579 253.176 61.3366 252.561 61.3366 251.818V246.273H62.6776V251.727C62.6776 252.364 62.8556 252.871 63.2116 253.25C63.5715 253.629 64.0298 253.818 64.5866 253.818C64.92 253.818 65.259 253.733 65.6037 253.562C65.9522 253.392 66.2438 253.131 66.4787 252.778C66.7173 252.426 66.8366 251.977 66.8366 251.432ZM70.6335 258.273V246.273H71.929V247.659H72.0881C72.1866 247.508 72.3229 247.314 72.4972 247.08C72.6752 246.841 72.929 246.629 73.2585 246.443C73.5919 246.254 74.0426 246.159 74.6108 246.159C75.3456 246.159 75.9934 246.343 76.554 246.71C77.1146 247.078 77.5521 247.598 77.8665 248.273C78.1809 248.947 78.3381 249.742 78.3381 250.659C78.3381 251.583 78.1809 252.384 77.8665 253.062C77.5521 253.737 77.1165 254.259 76.5597 254.631C76.0028 254.998 75.3608 255.182 74.6335 255.182C74.0729 255.182 73.6241 255.089 73.2869 254.903C72.9498 254.714 72.6903 254.5 72.5085 254.261C72.3267 254.019 72.1866 253.818 72.0881 253.659H71.9744V258.273H70.6335ZM71.9517 250.636C71.9517 251.295 72.0483 251.877 72.2415 252.381C72.4347 252.881 72.7169 253.273 73.0881 253.557C73.4593 253.837 73.9138 253.977 74.4517 253.977C75.0123 253.977 75.4801 253.83 75.8551 253.534C76.2339 253.235 76.518 252.833 76.7074 252.33C76.9006 251.822 76.9972 251.258 76.9972 250.636C76.9972 250.023 76.9025 249.47 76.7131 248.977C76.5275 248.481 76.2453 248.089 75.8665 247.801C75.4915 247.509 75.0199 247.364 74.4517 247.364C73.9063 247.364 73.4479 247.502 73.0767 247.778C72.7055 248.051 72.4252 248.434 72.2358 248.926C72.0464 249.415 71.9517 249.985 71.9517 250.636ZM83.9062 258.455C83.2585 258.455 82.7017 258.371 82.2358 258.205C81.7699 258.042 81.3816 257.826 81.071 257.557C80.7642 257.292 80.5199 257.008 80.3381 256.705L81.4062 255.955C81.5275 256.114 81.6809 256.295 81.8665 256.5C82.0521 256.708 82.3059 256.888 82.6278 257.04C82.9536 257.195 83.3797 257.273 83.9062 257.273C84.6108 257.273 85.1922 257.102 85.6506 256.761C86.1089 256.42 86.3381 255.886 86.3381 255.159V253.386H86.2244C86.1259 253.545 85.9858 253.742 85.804 253.977C85.6259 254.208 85.3684 254.415 85.0312 254.597C84.6979 254.775 84.2472 254.864 83.679 254.864C82.9744 254.864 82.3419 254.697 81.7812 254.364C81.2244 254.03 80.7831 253.545 80.4574 252.909C80.1354 252.273 79.9744 251.5 79.9744 250.591C79.9744 249.697 80.1316 248.919 80.446 248.256C80.7604 247.589 81.1979 247.074 81.7585 246.71C82.3191 246.343 82.9669 246.159 83.7017 246.159C84.2699 246.159 84.7206 246.254 85.054 246.443C85.3911 246.629 85.6487 246.841 85.8267 247.08C86.0085 247.314 86.1487 247.508 86.2472 247.659H86.3835V246.273H87.679V255.25C87.679 256 87.5085 256.61 87.1676 257.08C86.8305 257.553 86.3759 257.9 85.804 258.119C85.2358 258.343 84.6032 258.455 83.9062 258.455ZM83.8608 253.659C84.3987 253.659 84.8532 253.536 85.2244 253.29C85.5956 253.044 85.8778 252.689 86.071 252.227C86.2642 251.765 86.3608 251.212 86.3608 250.568C86.3608 249.939 86.2661 249.384 86.0767 248.903C85.8873 248.422 85.607 248.045 85.2358 247.773C84.8646 247.5 84.4063 247.364 83.8608 247.364C83.2926 247.364 82.8191 247.508 82.4403 247.795C82.0653 248.083 81.7831 248.47 81.5938 248.955C81.4081 249.439 81.3153 249.977 81.3153 250.568C81.3153 251.174 81.41 251.71 81.5994 252.176C81.7926 252.638 82.0767 253.002 82.4517 253.267C82.8305 253.528 83.3002 253.659 83.8608 253.659ZM90.1335 255V246.273H91.429V247.591H91.5199C91.679 247.159 91.9669 246.809 92.3835 246.54C92.8002 246.271 93.2699 246.136 93.7926 246.136C93.8911 246.136 94.0142 246.138 94.1619 246.142C94.3097 246.146 94.4214 246.152 94.4972 246.159V247.523C94.4517 247.511 94.3475 247.494 94.1847 247.472C94.0256 247.445 93.857 247.432 93.679 247.432C93.2547 247.432 92.8759 247.521 92.5426 247.699C92.2131 247.873 91.9517 248.116 91.7585 248.426C91.5691 248.733 91.4744 249.083 91.4744 249.477V255H90.1335ZM98.6548 255.205C98.1018 255.205 97.5999 255.1 97.1491 254.892C96.6984 254.68 96.3404 254.375 96.0753 253.977C95.8101 253.576 95.6776 253.091 95.6776 252.523C95.6776 252.023 95.776 251.617 95.973 251.307C96.17 250.992 96.4332 250.746 96.7628 250.568C97.0923 250.39 97.456 250.258 97.8537 250.17C98.2552 250.08 98.6586 250.008 99.0639 249.955C99.5942 249.886 100.024 249.835 100.354 249.801C100.687 249.763 100.929 249.701 101.081 249.614C101.236 249.527 101.314 249.375 101.314 249.159V249.114C101.314 248.553 101.161 248.117 100.854 247.807C100.551 247.496 100.09 247.341 99.473 247.341C98.8329 247.341 98.331 247.481 97.9673 247.761C97.6037 248.042 97.348 248.341 97.2003 248.659L95.9276 248.205C96.1548 247.674 96.4579 247.261 96.8366 246.966C97.2192 246.667 97.6359 246.458 98.0866 246.341C98.5412 246.22 98.9882 246.159 99.4276 246.159C99.7079 246.159 100.03 246.193 100.393 246.261C100.761 246.326 101.115 246.46 101.456 246.665C101.801 246.869 102.087 247.178 102.314 247.591C102.541 248.004 102.655 248.557 102.655 249.25V255H101.314V253.818H101.246C101.155 254.008 101.003 254.21 100.791 254.426C100.579 254.642 100.297 254.826 99.9446 254.977C99.5923 255.129 99.1624 255.205 98.6548 255.205ZM98.8594 254C99.3897 254 99.8366 253.896 100.2 253.688C100.568 253.479 100.844 253.21 101.03 252.881C101.219 252.551 101.314 252.205 101.314 251.841V250.614C101.257 250.682 101.132 250.744 100.939 250.801C100.75 250.854 100.53 250.902 100.28 250.943C100.034 250.981 99.7931 251.015 99.5582 251.045C99.3272 251.072 99.1397 251.095 98.9957 251.114C98.6473 251.159 98.3215 251.233 98.0185 251.335C97.7192 251.434 97.4768 251.583 97.2912 251.784C97.1094 251.981 97.0185 252.25 97.0185 252.591C97.0185 253.057 97.1908 253.409 97.5355 253.648C97.884 253.883 98.3253 254 98.8594 254ZM108.398 255.182C107.67 255.182 107.028 254.998 106.472 254.631C105.915 254.259 105.479 253.737 105.165 253.062C104.85 252.384 104.693 251.583 104.693 250.659C104.693 249.742 104.85 248.947 105.165 248.273C105.479 247.598 105.917 247.078 106.477 246.71C107.038 246.343 107.686 246.159 108.42 246.159C108.989 246.159 109.438 246.254 109.767 246.443C110.1 246.629 110.354 246.841 110.528 247.08C110.706 247.314 110.845 247.508 110.943 247.659H111.057V243.364H112.398V255H111.102V253.659H110.943C110.845 253.818 110.705 254.019 110.523 254.261C110.341 254.5 110.081 254.714 109.744 254.903C109.407 255.089 108.958 255.182 108.398 255.182ZM108.58 253.977C109.117 253.977 109.572 253.837 109.943 253.557C110.314 253.273 110.597 252.881 110.79 252.381C110.983 251.877 111.08 251.295 111.08 250.636C111.08 249.985 110.985 249.415 110.795 248.926C110.606 248.434 110.326 248.051 109.955 247.778C109.583 247.502 109.125 247.364 108.58 247.364C108.011 247.364 107.538 247.509 107.159 247.801C106.784 248.089 106.502 248.481 106.312 248.977C106.127 249.47 106.034 250.023 106.034 250.636C106.034 251.258 106.129 251.822 106.318 252.33C106.511 252.833 106.795 253.235 107.17 253.534C107.549 253.83 108.019 253.977 108.58 253.977ZM118.699 255.182C117.858 255.182 117.133 254.996 116.523 254.625C115.917 254.25 115.449 253.727 115.119 253.057C114.794 252.383 114.631 251.598 114.631 250.705C114.631 249.811 114.794 249.023 115.119 248.341C115.449 247.655 115.907 247.121 116.494 246.739C117.085 246.352 117.775 246.159 118.562 246.159C119.017 246.159 119.466 246.235 119.909 246.386C120.352 246.538 120.756 246.784 121.119 247.125C121.483 247.462 121.773 247.909 121.989 248.466C122.205 249.023 122.312 249.708 122.312 250.523V251.091H115.585V249.932H120.949C120.949 249.439 120.85 249 120.653 248.614C120.46 248.227 120.184 247.922 119.824 247.699C119.468 247.475 119.047 247.364 118.562 247.364C118.028 247.364 117.566 247.496 117.176 247.761C116.79 248.023 116.492 248.364 116.284 248.784C116.076 249.205 115.972 249.655 115.972 250.136V250.909C115.972 251.568 116.085 252.127 116.312 252.585C116.544 253.04 116.864 253.386 117.273 253.625C117.682 253.86 118.157 253.977 118.699 253.977C119.051 253.977 119.369 253.928 119.653 253.83C119.941 253.727 120.189 253.576 120.398 253.375C120.606 253.17 120.767 252.917 120.881 252.614L122.176 252.977C122.04 253.417 121.811 253.803 121.489 254.136C121.167 254.466 120.769 254.723 120.295 254.909C119.822 255.091 119.29 255.182 118.699 255.182ZM132.648 246.273V247.409H128.125V246.273H132.648ZM129.443 244.182H130.784V252.5C130.784 252.879 130.839 253.163 130.949 253.352C131.063 253.538 131.206 253.663 131.381 253.727C131.559 253.788 131.746 253.818 131.943 253.818C132.091 253.818 132.212 253.811 132.307 253.795C132.402 253.777 132.477 253.761 132.534 253.75L132.807 254.955C132.716 254.989 132.589 255.023 132.426 255.057C132.263 255.095 132.057 255.114 131.807 255.114C131.428 255.114 131.057 255.032 130.693 254.869C130.333 254.706 130.034 254.458 129.795 254.125C129.561 253.792 129.443 253.371 129.443 252.864V244.182ZM138.116 255.182C137.329 255.182 136.637 254.994 136.043 254.619C135.452 254.244 134.99 253.72 134.656 253.045C134.327 252.371 134.162 251.583 134.162 250.682C134.162 249.773 134.327 248.979 134.656 248.301C134.99 247.623 135.452 247.097 136.043 246.722C136.637 246.347 137.329 246.159 138.116 246.159C138.904 246.159 139.594 246.347 140.185 246.722C140.779 247.097 141.241 247.623 141.571 248.301C141.904 248.979 142.071 249.773 142.071 250.682C142.071 251.583 141.904 252.371 141.571 253.045C141.241 253.72 140.779 254.244 140.185 254.619C139.594 254.994 138.904 255.182 138.116 255.182ZM138.116 253.977C138.715 253.977 139.207 253.824 139.594 253.517C139.98 253.21 140.266 252.807 140.452 252.307C140.637 251.807 140.73 251.265 140.73 250.682C140.73 250.098 140.637 249.555 140.452 249.051C140.266 248.547 139.98 248.14 139.594 247.83C139.207 247.519 138.715 247.364 138.116 247.364C137.518 247.364 137.026 247.519 136.639 247.83C136.253 248.14 135.967 248.547 135.781 249.051C135.596 249.555 135.503 250.098 135.503 250.682C135.503 251.265 135.596 251.807 135.781 252.307C135.967 252.807 136.253 253.21 136.639 253.517C137.026 253.824 137.518 253.977 138.116 253.977ZM152.413 246.273V247.409H147.891V246.273H152.413ZM149.209 244.182H150.55V252.5C150.55 252.879 150.605 253.163 150.714 253.352C150.828 253.538 150.972 253.663 151.146 253.727C151.324 253.788 151.512 253.818 151.709 253.818C151.857 253.818 151.978 253.811 152.072 253.795C152.167 253.777 152.243 253.761 152.3 253.75L152.572 254.955C152.482 254.989 152.355 255.023 152.192 255.057C152.029 255.095 151.822 255.114 151.572 255.114C151.194 255.114 150.822 255.032 150.459 254.869C150.099 254.706 149.8 254.458 149.561 254.125C149.326 253.792 149.209 253.371 149.209 252.864V244.182ZM155.959 249.75V255H154.618V243.364H155.959V247.636H156.072C156.277 247.186 156.584 246.828 156.993 246.562C157.406 246.294 157.955 246.159 158.641 246.159C159.235 246.159 159.756 246.278 160.203 246.517C160.65 246.752 160.997 247.114 161.243 247.602C161.493 248.087 161.618 248.705 161.618 249.455V255H160.277V249.545C160.277 248.852 160.097 248.316 159.737 247.938C159.381 247.555 158.887 247.364 158.254 247.364C157.815 247.364 157.421 247.456 157.072 247.642C156.728 247.828 156.455 248.098 156.254 248.455C156.057 248.811 155.959 249.242 155.959 249.75ZM167.73 255.182C166.889 255.182 166.164 254.996 165.554 254.625C164.948 254.25 164.48 253.727 164.151 253.057C163.825 252.383 163.662 251.598 163.662 250.705C163.662 249.811 163.825 249.023 164.151 248.341C164.48 247.655 164.938 247.121 165.526 246.739C166.116 246.352 166.806 246.159 167.594 246.159C168.048 246.159 168.497 246.235 168.94 246.386C169.384 246.538 169.787 246.784 170.151 247.125C170.514 247.462 170.804 247.909 171.02 248.466C171.236 249.023 171.344 249.708 171.344 250.523V251.091H164.616V249.932H169.98C169.98 249.439 169.882 249 169.685 248.614C169.491 248.227 169.215 247.922 168.855 247.699C168.499 247.475 168.079 247.364 167.594 247.364C167.06 247.364 166.598 247.496 166.207 247.761C165.821 248.023 165.524 248.364 165.315 248.784C165.107 249.205 165.003 249.655 165.003 250.136V250.909C165.003 251.568 165.116 252.127 165.344 252.585C165.575 253.04 165.895 253.386 166.304 253.625C166.713 253.86 167.188 253.977 167.73 253.977C168.082 253.977 168.401 253.928 168.685 253.83C168.973 253.727 169.221 253.576 169.429 253.375C169.637 253.17 169.798 252.917 169.912 252.614L171.207 252.977C171.071 253.417 170.842 253.803 170.52 254.136C170.198 254.466 169.8 254.723 169.327 254.909C168.853 255.091 168.321 255.182 167.73 255.182ZM179.224 249.75V255H177.884V246.273H179.179V247.636H179.293C179.497 247.193 179.808 246.837 180.224 246.568C180.641 246.295 181.179 246.159 181.838 246.159C182.429 246.159 182.946 246.28 183.389 246.523C183.832 246.761 184.177 247.125 184.423 247.614C184.67 248.098 184.793 248.712 184.793 249.455V255H183.452V249.545C183.452 248.86 183.274 248.326 182.918 247.943C182.562 247.557 182.073 247.364 181.452 247.364C181.024 247.364 180.641 247.456 180.304 247.642C179.971 247.828 179.707 248.098 179.514 248.455C179.321 248.811 179.224 249.242 179.224 249.75ZM190.902 255.182C190.061 255.182 189.336 254.996 188.726 254.625C188.12 254.25 187.652 253.727 187.322 253.057C186.997 252.383 186.834 251.598 186.834 250.705C186.834 249.811 186.997 249.023 187.322 248.341C187.652 247.655 188.11 247.121 188.697 246.739C189.288 246.352 189.978 246.159 190.766 246.159C191.22 246.159 191.669 246.235 192.112 246.386C192.555 246.538 192.959 246.784 193.322 247.125C193.686 247.462 193.976 247.909 194.192 248.466C194.408 249.023 194.516 249.708 194.516 250.523V251.091H187.788V249.932H193.152C193.152 249.439 193.054 249 192.857 248.614C192.663 248.227 192.387 247.922 192.027 247.699C191.671 247.475 191.25 247.364 190.766 247.364C190.232 247.364 189.769 247.496 189.379 247.761C188.993 248.023 188.696 248.364 188.487 248.784C188.279 249.205 188.175 249.655 188.175 250.136V250.909C188.175 251.568 188.288 252.127 188.516 252.585C188.747 253.04 189.067 253.386 189.476 253.625C189.885 253.86 190.36 253.977 190.902 253.977C191.254 253.977 191.572 253.928 191.857 253.83C192.144 253.727 192.393 253.576 192.601 253.375C192.809 253.17 192.97 252.917 193.084 252.614L194.379 252.977C194.243 253.417 194.014 253.803 193.692 254.136C193.37 254.466 192.972 254.723 192.499 254.909C192.025 255.091 191.493 255.182 190.902 255.182ZM198.533 255L195.874 246.273H197.283L199.169 252.955H199.26L201.124 246.273H202.555L204.396 252.932H204.487L206.374 246.273H207.783L205.124 255H203.805L201.896 248.295H201.76L199.851 255H198.533ZM212.918 255.182C212.077 255.182 211.351 254.996 210.741 254.625C210.135 254.25 209.668 253.727 209.338 253.057C209.012 252.383 208.849 251.598 208.849 250.705C208.849 249.811 209.012 249.023 209.338 248.341C209.668 247.655 210.126 247.121 210.713 246.739C211.304 246.352 211.993 246.159 212.781 246.159C213.236 246.159 213.685 246.235 214.128 246.386C214.571 246.538 214.974 246.784 215.338 247.125C215.702 247.462 215.991 247.909 216.207 248.466C216.423 249.023 216.531 249.708 216.531 250.523V251.091H209.804V249.932H215.168C215.168 249.439 215.069 249 214.872 248.614C214.679 248.227 214.402 247.922 214.043 247.699C213.687 247.475 213.266 247.364 212.781 247.364C212.247 247.364 211.785 247.496 211.395 247.761C211.009 248.023 210.711 248.364 210.503 248.784C210.295 249.205 210.19 249.655 210.19 250.136V250.909C210.19 251.568 210.304 252.127 210.531 252.585C210.762 253.04 211.082 253.386 211.491 253.625C211.901 253.86 212.376 253.977 212.918 253.977C213.27 253.977 213.588 253.928 213.872 253.83C214.16 253.727 214.408 253.576 214.616 253.375C214.825 253.17 214.986 252.917 215.099 252.614L216.395 252.977C216.259 253.417 216.029 253.803 215.707 254.136C215.385 254.466 214.988 254.723 214.514 254.909C214.041 255.091 213.509 255.182 212.918 255.182ZM224.753 248.227L223.548 248.568C223.473 248.367 223.361 248.172 223.213 247.983C223.069 247.79 222.872 247.631 222.622 247.506C222.372 247.381 222.052 247.318 221.662 247.318C221.128 247.318 220.683 247.441 220.327 247.688C219.974 247.93 219.798 248.239 219.798 248.614C219.798 248.947 219.92 249.21 220.162 249.403C220.404 249.597 220.783 249.758 221.298 249.886L222.594 250.205C223.374 250.394 223.955 250.684 224.338 251.074C224.721 251.46 224.912 251.958 224.912 252.568C224.912 253.068 224.768 253.515 224.48 253.909C224.196 254.303 223.798 254.614 223.287 254.841C222.776 255.068 222.181 255.182 221.503 255.182C220.613 255.182 219.876 254.989 219.293 254.602C218.709 254.216 218.34 253.652 218.185 252.909L219.457 252.591C219.579 253.061 219.808 253.413 220.145 253.648C220.486 253.883 220.931 254 221.48 254C222.105 254 222.601 253.867 222.969 253.602C223.34 253.333 223.526 253.011 223.526 252.636C223.526 252.333 223.42 252.08 223.207 251.875C222.995 251.667 222.67 251.511 222.23 251.409L220.776 251.068C219.976 250.879 219.389 250.585 219.014 250.188C218.643 249.786 218.457 249.284 218.457 248.682C218.457 248.189 218.596 247.754 218.872 247.375C219.152 246.996 219.533 246.699 220.014 246.483C220.499 246.267 221.048 246.159 221.662 246.159C222.526 246.159 223.204 246.348 223.696 246.727C224.192 247.106 224.545 247.606 224.753 248.227ZM230.726 246.273V247.409H226.203V246.273H230.726ZM227.521 244.182H228.862V252.5C228.862 252.879 228.917 253.163 229.027 253.352C229.141 253.538 229.285 253.663 229.459 253.727C229.637 253.788 229.824 253.818 230.021 253.818C230.169 253.818 230.29 253.811 230.385 253.795C230.48 253.777 230.555 253.761 230.612 253.75L230.885 254.955C230.794 254.989 230.667 255.023 230.504 255.057C230.341 255.095 230.135 255.114 229.885 255.114C229.506 255.114 229.135 255.032 228.771 254.869C228.411 254.706 228.112 254.458 227.874 254.125C227.639 253.792 227.521 253.371 227.521 252.864V244.182ZM8.36364 267.273L5.13636 276H3.77273L0.545455 267.273H2L4.40909 274.227H4.5L6.90909 267.273H8.36364ZM13.4801 276.182C12.6392 276.182 11.9138 275.996 11.304 275.625C10.6979 275.25 10.2301 274.727 9.90057 274.057C9.57481 273.383 9.41193 272.598 9.41193 271.705C9.41193 270.811 9.57481 270.023 9.90057 269.341C10.2301 268.655 10.6884 268.121 11.2756 267.739C11.8665 267.352 12.5559 267.159 13.3438 267.159C13.7983 267.159 14.2472 267.235 14.6903 267.386C15.1335 267.538 15.5369 267.784 15.9006 268.125C16.2642 268.462 16.554 268.909 16.7699 269.466C16.9858 270.023 17.0938 270.708 17.0938 271.523V272.091H10.3665V270.932H15.7301C15.7301 270.439 15.6316 270 15.4347 269.614C15.2415 269.227 14.965 268.922 14.6051 268.699C14.2491 268.475 13.8286 268.364 13.3438 268.364C12.8097 268.364 12.3475 268.496 11.9574 268.761C11.571 269.023 11.2737 269.364 11.0653 269.784C10.857 270.205 10.7528 270.655 10.7528 271.136V271.909C10.7528 272.568 10.8665 273.127 11.0938 273.585C11.3248 274.04 11.6449 274.386 12.054 274.625C12.4631 274.86 12.9384 274.977 13.4801 274.977C13.8324 274.977 14.1506 274.928 14.4347 274.83C14.7225 274.727 14.9706 274.576 15.179 274.375C15.3873 274.17 15.5483 273.917 15.6619 273.614L16.9574 273.977C16.821 274.417 16.5919 274.803 16.2699 275.136C15.9479 275.466 15.5502 275.723 15.0767 275.909C14.6032 276.091 14.071 276.182 13.4801 276.182ZM20.4744 270.75V276H19.1335V264.364H20.4744V268.636H20.5881C20.7926 268.186 21.0994 267.828 21.5085 267.562C21.9214 267.294 22.4706 267.159 23.1562 267.159C23.7509 267.159 24.2718 267.278 24.7188 267.517C25.1657 267.752 25.5123 268.114 25.7585 268.602C26.0085 269.087 26.1335 269.705 26.1335 270.455V276H24.7926V270.545C24.7926 269.852 24.6127 269.316 24.2528 268.938C23.8968 268.555 23.4025 268.364 22.7699 268.364C22.3305 268.364 21.9366 268.456 21.5881 268.642C21.2434 268.828 20.9706 269.098 20.7699 269.455C20.5729 269.811 20.4744 270.242 20.4744 270.75ZM28.5866 276V267.273H29.9276V276H28.5866ZM29.2685 265.818C29.0071 265.818 28.7817 265.729 28.5923 265.551C28.4067 265.373 28.3139 265.159 28.3139 264.909C28.3139 264.659 28.4067 264.445 28.5923 264.267C28.7817 264.089 29.0071 264 29.2685 264C29.5298 264 29.7533 264.089 29.9389 264.267C30.1283 264.445 30.223 264.659 30.223 264.909C30.223 265.159 30.1283 265.373 29.9389 265.551C29.7533 265.729 29.5298 265.818 29.2685 265.818ZM35.929 276.182C35.1108 276.182 34.4063 275.989 33.8153 275.602C33.2244 275.216 32.7699 274.684 32.4517 274.006C32.1335 273.328 31.9744 272.553 31.9744 271.682C31.9744 270.795 32.1373 270.013 32.4631 269.335C32.7926 268.653 33.2509 268.121 33.8381 267.739C34.429 267.352 35.1184 267.159 35.9062 267.159C36.5199 267.159 37.0729 267.273 37.5653 267.5C38.0578 267.727 38.4612 268.045 38.7756 268.455C39.09 268.864 39.285 269.341 39.3608 269.886H38.0199C37.9176 269.489 37.6903 269.136 37.3381 268.83C36.9896 268.519 36.5199 268.364 35.929 268.364C35.4063 268.364 34.9479 268.5 34.554 268.773C34.1638 269.042 33.8589 269.422 33.6392 269.915C33.4233 270.403 33.3153 270.977 33.3153 271.636C33.3153 272.311 33.4214 272.898 33.6335 273.398C33.8494 273.898 34.1525 274.286 34.5426 274.562C34.9366 274.839 35.3987 274.977 35.929 274.977C36.2775 274.977 36.5938 274.917 36.8778 274.795C37.1619 274.674 37.4025 274.5 37.5994 274.273C37.7964 274.045 37.9366 273.773 38.0199 273.455H39.3608C39.285 273.97 39.0975 274.434 38.7983 274.847C38.5028 275.256 38.1108 275.581 37.6222 275.824C37.1373 276.062 36.5729 276.182 35.929 276.182ZM42.6619 264.364V276H41.321V264.364H42.6619ZM48.777 276.182C47.9361 276.182 47.2107 275.996 46.6009 275.625C45.9948 275.25 45.527 274.727 45.1974 274.057C44.8717 273.383 44.7088 272.598 44.7088 271.705C44.7088 270.811 44.8717 270.023 45.1974 269.341C45.527 268.655 45.9853 268.121 46.5724 267.739C47.1634 267.352 47.8527 267.159 48.6406 267.159C49.0952 267.159 49.544 267.235 49.9872 267.386C50.4304 267.538 50.8338 267.784 51.1974 268.125C51.5611 268.462 51.8509 268.909 52.0668 269.466C52.2827 270.023 52.3906 270.708 52.3906 271.523V272.091H45.6634V270.932H51.027C51.027 270.439 50.9285 270 50.7315 269.614C50.5384 269.227 50.2618 268.922 49.902 268.699C49.5459 268.475 49.1255 268.364 48.6406 268.364C48.1065 268.364 47.6444 268.496 47.2543 268.761C46.8679 269.023 46.5705 269.364 46.3622 269.784C46.1539 270.205 46.0497 270.655 46.0497 271.136V271.909C46.0497 272.568 46.1634 273.127 46.3906 273.585C46.6217 274.04 46.9418 274.386 47.3509 274.625C47.7599 274.86 48.2353 274.977 48.777 274.977C49.1293 274.977 49.4474 274.928 49.7315 274.83C50.0194 274.727 50.2675 274.576 50.4759 274.375C50.6842 274.17 50.8452 273.917 50.9588 273.614L52.2543 273.977C52.1179 274.417 51.8887 274.803 51.5668 275.136C51.2448 275.466 50.8471 275.723 50.3736 275.909C49.9001 276.091 49.3679 276.182 48.777 276.182ZM58.9304 276V267.273H60.2259V268.636H60.3395C60.5213 268.17 60.8149 267.809 61.2202 267.551C61.6255 267.29 62.1122 267.159 62.6804 267.159C63.2562 267.159 63.7353 267.29 64.1179 267.551C64.5043 267.809 64.8054 268.17 65.0213 268.636H65.1122C65.3357 268.186 65.6709 267.828 66.1179 267.562C66.5649 267.294 67.1009 267.159 67.7259 267.159C68.5062 267.159 69.1444 267.403 69.6406 267.892C70.1368 268.377 70.3849 269.133 70.3849 270.159V276H69.044V270.159C69.044 269.515 68.8679 269.055 68.5156 268.778C68.1634 268.502 67.7486 268.364 67.2713 268.364C66.6577 268.364 66.1823 268.549 65.8452 268.92C65.508 269.288 65.3395 269.754 65.3395 270.318V276H63.9759V270.023C63.9759 269.527 63.8149 269.127 63.4929 268.824C63.1709 268.517 62.7562 268.364 62.2486 268.364C61.9001 268.364 61.5743 268.456 61.2713 268.642C60.9721 268.828 60.7296 269.085 60.544 269.415C60.3622 269.741 60.2713 270.117 60.2713 270.545V276H58.9304ZM76.3821 276.182C75.5942 276.182 74.9029 275.994 74.3082 275.619C73.7173 275.244 73.2552 274.72 72.9219 274.045C72.5923 273.371 72.4276 272.583 72.4276 271.682C72.4276 270.773 72.5923 269.979 72.9219 269.301C73.2552 268.623 73.7173 268.097 74.3082 267.722C74.9029 267.347 75.5942 267.159 76.3821 267.159C77.17 267.159 77.8594 267.347 78.4503 267.722C79.045 268.097 79.5071 268.623 79.8366 269.301C80.17 269.979 80.3366 270.773 80.3366 271.682C80.3366 272.583 80.17 273.371 79.8366 274.045C79.5071 274.72 79.045 275.244 78.4503 275.619C77.8594 275.994 77.17 276.182 76.3821 276.182ZM76.3821 274.977C76.9806 274.977 77.473 274.824 77.8594 274.517C78.2457 274.21 78.5317 273.807 78.7173 273.307C78.9029 272.807 78.9957 272.265 78.9957 271.682C78.9957 271.098 78.9029 270.555 78.7173 270.051C78.5317 269.547 78.2457 269.14 77.8594 268.83C77.473 268.519 76.9806 268.364 76.3821 268.364C75.7836 268.364 75.2912 268.519 74.9048 268.83C74.5185 269.14 74.2325 269.547 74.0469 270.051C73.8613 270.555 73.7685 271.098 73.7685 271.682C73.7685 272.265 73.8613 272.807 74.0469 273.307C74.2325 273.807 74.5185 274.21 74.9048 274.517C75.2912 274.824 75.7836 274.977 76.3821 274.977ZM85.679 276.182C84.9517 276.182 84.3097 275.998 83.7528 275.631C83.196 275.259 82.7604 274.737 82.446 274.062C82.1316 273.384 81.9744 272.583 81.9744 271.659C81.9744 270.742 82.1316 269.947 82.446 269.273C82.7604 268.598 83.1979 268.078 83.7585 267.71C84.3191 267.343 84.9669 267.159 85.7017 267.159C86.2699 267.159 86.7188 267.254 87.0483 267.443C87.3816 267.629 87.6354 267.841 87.8097 268.08C87.9877 268.314 88.1259 268.508 88.2244 268.659H88.3381V264.364H89.679V276H88.3835V274.659H88.2244C88.1259 274.818 87.9858 275.019 87.804 275.261C87.6222 275.5 87.3627 275.714 87.0256 275.903C86.6884 276.089 86.2396 276.182 85.679 276.182ZM85.8608 274.977C86.3987 274.977 86.8532 274.837 87.2244 274.557C87.5956 274.273 87.8778 273.881 88.071 273.381C88.2642 272.877 88.3608 272.295 88.3608 271.636C88.3608 270.985 88.2661 270.415 88.0767 269.926C87.8873 269.434 87.607 269.051 87.2358 268.778C86.8646 268.502 86.4063 268.364 85.8608 268.364C85.2926 268.364 84.8191 268.509 84.4403 268.801C84.0653 269.089 83.7831 269.481 83.5938 269.977C83.4081 270.47 83.3153 271.023 83.3153 271.636C83.3153 272.258 83.41 272.822 83.5994 273.33C83.7926 273.833 84.0767 274.235 84.4517 274.534C84.8305 274.83 85.3002 274.977 85.8608 274.977ZM95.9801 276.182C95.1392 276.182 94.4138 275.996 93.804 275.625C93.1979 275.25 92.7301 274.727 92.4006 274.057C92.0748 273.383 91.9119 272.598 91.9119 271.705C91.9119 270.811 92.0748 270.023 92.4006 269.341C92.7301 268.655 93.1884 268.121 93.7756 267.739C94.3665 267.352 95.0559 267.159 95.8438 267.159C96.2983 267.159 96.7472 267.235 97.1903 267.386C97.6335 267.538 98.0369 267.784 98.4006 268.125C98.7642 268.462 99.054 268.909 99.2699 269.466C99.4858 270.023 99.5938 270.708 99.5938 271.523V272.091H92.8665V270.932H98.2301C98.2301 270.439 98.1316 270 97.9347 269.614C97.7415 269.227 97.465 268.922 97.1051 268.699C96.7491 268.475 96.3286 268.364 95.8438 268.364C95.3097 268.364 94.8475 268.496 94.4574 268.761C94.071 269.023 93.7737 269.364 93.5653 269.784C93.357 270.205 93.2528 270.655 93.2528 271.136V271.909C93.2528 272.568 93.3665 273.127 93.5938 273.585C93.8248 274.04 94.1449 274.386 94.554 274.625C94.9631 274.86 95.4384 274.977 95.9801 274.977C96.3324 274.977 96.6506 274.928 96.9347 274.83C97.2225 274.727 97.4706 274.576 97.679 274.375C97.8873 274.17 98.0483 273.917 98.1619 273.614L99.4574 273.977C99.321 274.417 99.0919 274.803 98.7699 275.136C98.4479 275.466 98.0502 275.723 97.5767 275.909C97.1032 276.091 96.571 276.182 95.9801 276.182ZM102.974 264.364V276H101.634V264.364H102.974ZM113.589 276.182C112.749 276.182 112.023 275.996 111.413 275.625C110.807 275.25 110.339 274.727 110.01 274.057C109.684 273.383 109.521 272.598 109.521 271.705C109.521 270.811 109.684 270.023 110.01 269.341C110.339 268.655 110.798 268.121 111.385 267.739C111.976 267.352 112.665 267.159 113.453 267.159C113.908 267.159 114.357 267.235 114.8 267.386C115.243 267.538 115.646 267.784 116.01 268.125C116.374 268.462 116.663 268.909 116.879 269.466C117.095 270.023 117.203 270.708 117.203 271.523V272.091H110.476V270.932H115.839C115.839 270.439 115.741 270 115.544 269.614C115.351 269.227 115.074 268.922 114.714 268.699C114.358 268.475 113.938 268.364 113.453 268.364C112.919 268.364 112.457 268.496 112.067 268.761C111.68 269.023 111.383 269.364 111.175 269.784C110.966 270.205 110.862 270.655 110.862 271.136V271.909C110.862 272.568 110.976 273.127 111.203 273.585C111.434 274.04 111.754 274.386 112.163 274.625C112.572 274.86 113.048 274.977 113.589 274.977C113.942 274.977 114.26 274.928 114.544 274.83C114.832 274.727 115.08 274.576 115.288 274.375C115.497 274.17 115.658 273.917 115.771 273.614L117.067 273.977C116.93 274.417 116.701 274.803 116.379 275.136C116.057 275.466 115.66 275.723 115.186 275.909C114.713 276.091 114.18 276.182 113.589 276.182ZM126.114 267.273L122.886 276H121.523L118.295 267.273H119.75L122.159 274.227H122.25L124.659 267.273H126.114ZM131.23 276.182C130.389 276.182 129.664 275.996 129.054 275.625C128.448 275.25 127.98 274.727 127.651 274.057C127.325 273.383 127.162 272.598 127.162 271.705C127.162 270.811 127.325 270.023 127.651 269.341C127.98 268.655 128.438 268.121 129.026 267.739C129.616 267.352 130.306 267.159 131.094 267.159C131.548 267.159 131.997 267.235 132.44 267.386C132.884 267.538 133.287 267.784 133.651 268.125C134.014 268.462 134.304 268.909 134.52 269.466C134.736 270.023 134.844 270.708 134.844 271.523V272.091H128.116V270.932H133.48C133.48 270.439 133.382 270 133.185 269.614C132.991 269.227 132.715 268.922 132.355 268.699C131.999 268.475 131.579 268.364 131.094 268.364C130.56 268.364 130.098 268.496 129.707 268.761C129.321 269.023 129.024 269.364 128.815 269.784C128.607 270.205 128.503 270.655 128.503 271.136V271.909C128.503 272.568 128.616 273.127 128.844 273.585C129.075 274.04 129.395 274.386 129.804 274.625C130.213 274.86 130.688 274.977 131.23 274.977C131.582 274.977 131.901 274.928 132.185 274.83C132.473 274.727 132.721 274.576 132.929 274.375C133.137 274.17 133.298 273.917 133.412 273.614L134.707 273.977C134.571 274.417 134.342 274.803 134.02 275.136C133.698 275.466 133.3 275.723 132.827 275.909C132.353 276.091 131.821 276.182 131.23 276.182ZM136.884 276V267.273H138.179V268.591H138.27C138.429 268.159 138.717 267.809 139.134 267.54C139.55 267.271 140.02 267.136 140.543 267.136C140.641 267.136 140.764 267.138 140.912 267.142C141.06 267.146 141.171 267.152 141.247 267.159V268.523C141.202 268.511 141.098 268.494 140.935 268.472C140.776 268.445 140.607 268.432 140.429 268.432C140.005 268.432 139.626 268.521 139.293 268.699C138.963 268.873 138.702 269.116 138.509 269.426C138.319 269.733 138.224 270.083 138.224 270.477V276H136.884ZM143.966 279.273C143.739 279.273 143.536 279.254 143.358 279.216C143.18 279.182 143.057 279.148 142.989 279.114L143.33 277.932C143.655 278.015 143.943 278.045 144.193 278.023C144.443 278 144.665 277.888 144.858 277.688C145.055 277.491 145.235 277.17 145.398 276.727L145.648 276.045L142.42 267.273H143.875L146.284 274.227H146.375L148.784 267.273H150.239L146.534 277.273C146.367 277.723 146.161 278.097 145.915 278.392C145.669 278.691 145.383 278.913 145.057 279.057C144.735 279.201 144.371 279.273 143.966 279.273ZM160.395 267.273V268.409H155.69V267.273H160.395ZM157.099 276V266.068C157.099 265.568 157.217 265.152 157.452 264.818C157.687 264.485 157.991 264.235 158.366 264.068C158.741 263.902 159.137 263.818 159.554 263.818C159.884 263.818 160.152 263.845 160.361 263.898C160.569 263.951 160.724 264 160.827 264.045L160.44 265.205C160.372 265.182 160.277 265.153 160.156 265.119C160.039 265.085 159.884 265.068 159.69 265.068C159.247 265.068 158.927 265.18 158.73 265.403C158.537 265.627 158.44 265.955 158.44 266.386V276H157.099ZM165.574 276.182C164.733 276.182 164.008 275.996 163.398 275.625C162.792 275.25 162.324 274.727 161.994 274.057C161.669 273.383 161.506 272.598 161.506 271.705C161.506 270.811 161.669 270.023 161.994 269.341C162.324 268.655 162.782 268.121 163.369 267.739C163.96 267.352 164.65 267.159 165.438 267.159C165.892 267.159 166.341 267.235 166.784 267.386C167.227 267.538 167.631 267.784 167.994 268.125C168.358 268.462 168.648 268.909 168.864 269.466C169.08 270.023 169.188 270.708 169.188 271.523V272.091H162.46V270.932H167.824C167.824 270.439 167.725 270 167.528 269.614C167.335 269.227 167.059 268.922 166.699 268.699C166.343 268.475 165.922 268.364 165.438 268.364C164.903 268.364 164.441 268.496 164.051 268.761C163.665 269.023 163.367 269.364 163.159 269.784C162.951 270.205 162.847 270.655 162.847 271.136V271.909C162.847 272.568 162.96 273.127 163.188 273.585C163.419 274.04 163.739 274.386 164.148 274.625C164.557 274.86 165.032 274.977 165.574 274.977C165.926 274.977 166.244 274.928 166.528 274.83C166.816 274.727 167.064 274.576 167.273 274.375C167.481 274.17 167.642 273.917 167.756 273.614L169.051 273.977C168.915 274.417 168.686 274.803 168.364 275.136C168.042 275.466 167.644 275.723 167.17 275.909C166.697 276.091 166.165 276.182 165.574 276.182ZM173.205 276L170.545 267.273H171.955L173.841 273.955H173.932L175.795 267.273H177.227L179.068 273.932H179.159L181.045 267.273H182.455L179.795 276H178.477L176.568 269.295H176.432L174.523 276H173.205ZM189.591 279.273C189.364 279.273 189.161 279.254 188.983 279.216C188.805 279.182 188.682 279.148 188.614 279.114L188.955 277.932C189.28 278.015 189.568 278.045 189.818 278.023C190.068 278 190.29 277.888 190.483 277.688C190.68 277.491 190.86 277.17 191.023 276.727L191.273 276.045L188.045 267.273H189.5L191.909 274.227H192L194.409 267.273H195.864L192.159 277.273C191.992 277.723 191.786 278.097 191.54 278.392C191.294 278.691 191.008 278.913 190.682 279.057C190.36 279.201 189.996 279.273 189.591 279.273ZM200.98 276.182C200.139 276.182 199.414 275.996 198.804 275.625C198.198 275.25 197.73 274.727 197.401 274.057C197.075 273.383 196.912 272.598 196.912 271.705C196.912 270.811 197.075 270.023 197.401 269.341C197.73 268.655 198.188 268.121 198.776 267.739C199.366 267.352 200.056 267.159 200.844 267.159C201.298 267.159 201.747 267.235 202.19 267.386C202.634 267.538 203.037 267.784 203.401 268.125C203.764 268.462 204.054 268.909 204.27 269.466C204.486 270.023 204.594 270.708 204.594 271.523V272.091H197.866V270.932H203.23C203.23 270.439 203.132 270 202.935 269.614C202.741 269.227 202.465 268.922 202.105 268.699C201.749 268.475 201.329 268.364 200.844 268.364C200.31 268.364 199.848 268.496 199.457 268.761C199.071 269.023 198.774 269.364 198.565 269.784C198.357 270.205 198.253 270.655 198.253 271.136V271.909C198.253 272.568 198.366 273.127 198.594 273.585C198.825 274.04 199.145 274.386 199.554 274.625C199.963 274.86 200.438 274.977 200.98 274.977C201.332 274.977 201.651 274.928 201.935 274.83C202.223 274.727 202.471 274.576 202.679 274.375C202.887 274.17 203.048 273.917 203.162 273.614L204.457 273.977C204.321 274.417 204.092 274.803 203.77 275.136C203.448 275.466 203.05 275.723 202.577 275.909C202.103 276.091 201.571 276.182 200.98 276.182ZM209.202 276.205C208.649 276.205 208.147 276.1 207.696 275.892C207.245 275.68 206.887 275.375 206.622 274.977C206.357 274.576 206.224 274.091 206.224 273.523C206.224 273.023 206.323 272.617 206.52 272.307C206.717 271.992 206.98 271.746 207.31 271.568C207.639 271.39 208.003 271.258 208.401 271.17C208.802 271.08 209.205 271.008 209.611 270.955C210.141 270.886 210.571 270.835 210.901 270.801C211.234 270.763 211.476 270.701 211.628 270.614C211.783 270.527 211.861 270.375 211.861 270.159V270.114C211.861 269.553 211.707 269.117 211.401 268.807C211.098 268.496 210.637 268.341 210.02 268.341C209.38 268.341 208.878 268.481 208.514 268.761C208.151 269.042 207.895 269.341 207.747 269.659L206.474 269.205C206.702 268.674 207.005 268.261 207.384 267.966C207.766 267.667 208.183 267.458 208.634 267.341C209.088 267.22 209.535 267.159 209.974 267.159C210.255 267.159 210.577 267.193 210.94 267.261C211.308 267.326 211.662 267.46 212.003 267.665C212.348 267.869 212.634 268.178 212.861 268.591C213.088 269.004 213.202 269.557 213.202 270.25V276H211.861V274.818H211.793C211.702 275.008 211.55 275.21 211.338 275.426C211.126 275.642 210.844 275.826 210.491 275.977C210.139 276.129 209.709 276.205 209.202 276.205ZM209.406 275C209.937 275 210.384 274.896 210.747 274.688C211.115 274.479 211.391 274.21 211.577 273.881C211.766 273.551 211.861 273.205 211.861 272.841V271.614C211.804 271.682 211.679 271.744 211.486 271.801C211.296 271.854 211.077 271.902 210.827 271.943C210.58 271.981 210.34 272.015 210.105 272.045C209.874 272.072 209.687 272.095 209.543 272.114C209.194 272.159 208.868 272.233 208.565 272.335C208.266 272.434 208.024 272.583 207.838 272.784C207.656 272.981 207.565 273.25 207.565 273.591C207.565 274.057 207.738 274.409 208.082 274.648C208.431 274.883 208.872 275 209.406 275ZM215.649 276V267.273H216.945V268.591H217.036C217.195 268.159 217.482 267.809 217.899 267.54C218.316 267.271 218.786 267.136 219.308 267.136C219.407 267.136 219.53 267.138 219.678 267.142C219.825 267.146 219.937 267.152 220.013 267.159V268.523C219.967 268.511 219.863 268.494 219.7 268.472C219.541 268.445 219.373 268.432 219.195 268.432C218.77 268.432 218.392 268.521 218.058 268.699C217.729 268.873 217.467 269.116 217.274 269.426C217.085 269.733 216.99 270.083 216.99 270.477V276H215.649ZM227.784 269.227L226.58 269.568C226.504 269.367 226.392 269.172 226.244 268.983C226.1 268.79 225.903 268.631 225.653 268.506C225.403 268.381 225.083 268.318 224.693 268.318C224.159 268.318 223.714 268.441 223.358 268.688C223.006 268.93 222.83 269.239 222.83 269.614C222.83 269.947 222.951 270.21 223.193 270.403C223.436 270.597 223.814 270.758 224.33 270.886L225.625 271.205C226.405 271.394 226.987 271.684 227.369 272.074C227.752 272.46 227.943 272.958 227.943 273.568C227.943 274.068 227.799 274.515 227.511 274.909C227.227 275.303 226.83 275.614 226.318 275.841C225.807 276.068 225.212 276.182 224.534 276.182C223.644 276.182 222.907 275.989 222.324 275.602C221.741 275.216 221.371 274.652 221.216 273.909L222.489 273.591C222.61 274.061 222.839 274.413 223.176 274.648C223.517 274.883 223.962 275 224.511 275C225.136 275 225.633 274.867 226 274.602C226.371 274.333 226.557 274.011 226.557 273.636C226.557 273.333 226.451 273.08 226.239 272.875C226.027 272.667 225.701 272.511 225.261 272.409L223.807 272.068C223.008 271.879 222.42 271.585 222.045 271.188C221.674 270.786 221.489 270.284 221.489 269.682C221.489 269.189 221.627 268.754 221.903 268.375C222.184 267.996 222.564 267.699 223.045 267.483C223.53 267.267 224.08 267.159 224.693 267.159C225.557 267.159 226.235 267.348 226.727 267.727C227.223 268.106 227.576 268.606 227.784 269.227ZM234.462 276V267.273H235.803V276H234.462ZM235.143 265.818C234.882 265.818 234.657 265.729 234.467 265.551C234.282 265.373 234.189 265.159 234.189 264.909C234.189 264.659 234.282 264.445 234.467 264.267C234.657 264.089 234.882 264 235.143 264C235.405 264 235.628 264.089 235.814 264.267C236.003 264.445 236.098 264.659 236.098 264.909C236.098 265.159 236.003 265.373 235.814 265.551C235.628 265.729 235.405 265.818 235.143 265.818ZM242.145 267.273V268.409H237.44V267.273H242.145ZM238.849 276V266.068C238.849 265.568 238.967 265.152 239.202 264.818C239.437 264.485 239.741 264.235 240.116 264.068C240.491 263.902 240.887 263.818 241.304 263.818C241.634 263.818 241.902 263.845 242.111 263.898C242.319 263.951 242.474 264 242.577 264.045L242.19 265.205C242.122 265.182 242.027 265.153 241.906 265.119C241.789 265.085 241.634 265.068 241.44 265.068C240.997 265.068 240.677 265.18 240.48 265.403C240.287 265.627 240.19 265.955 240.19 266.386V276H238.849ZM2.09091 300.273C1.86364 300.273 1.66098 300.254 1.48295 300.216C1.30492 300.182 1.18182 300.148 1.11364 300.114L1.45455 298.932C1.7803 299.015 2.06818 299.045 2.31818 299.023C2.56818 299 2.78977 298.888 2.98295 298.688C3.17992 298.491 3.35985 298.17 3.52273 297.727L3.77273 297.045L0.545455 288.273H2L4.40909 295.227H4.5L6.90909 288.273H8.36364L4.65909 298.273C4.49242 298.723 4.28598 299.097 4.03977 299.392C3.79356 299.691 3.50758 299.913 3.18182 300.057C2.85985 300.201 2.49621 300.273 2.09091 300.273ZM13.3665 297.182C12.5786 297.182 11.8873 296.994 11.2926 296.619C10.7017 296.244 10.2396 295.72 9.90625 295.045C9.5767 294.371 9.41193 293.583 9.41193 292.682C9.41193 291.773 9.5767 290.979 9.90625 290.301C10.2396 289.623 10.7017 289.097 11.2926 288.722C11.8873 288.347 12.5786 288.159 13.3665 288.159C14.1544 288.159 14.8438 288.347 15.4347 288.722C16.0294 289.097 16.4915 289.623 16.821 290.301C17.1544 290.979 17.321 291.773 17.321 292.682C17.321 293.583 17.1544 294.371 16.821 295.045C16.4915 295.72 16.0294 296.244 15.4347 296.619C14.8438 296.994 14.1544 297.182 13.3665 297.182ZM13.3665 295.977C13.965 295.977 14.4574 295.824 14.8438 295.517C15.2301 295.21 15.5161 294.807 15.7017 294.307C15.8873 293.807 15.9801 293.265 15.9801 292.682C15.9801 292.098 15.8873 291.555 15.7017 291.051C15.5161 290.547 15.2301 290.14 14.8438 289.83C14.4574 289.519 13.965 289.364 13.3665 289.364C12.768 289.364 12.2756 289.519 11.8892 289.83C11.5028 290.14 11.2169 290.547 11.0312 291.051C10.8456 291.555 10.7528 292.098 10.7528 292.682C10.7528 293.265 10.8456 293.807 11.0312 294.307C11.2169 294.807 11.5028 295.21 11.8892 295.517C12.2756 295.824 12.768 295.977 13.3665 295.977ZM24.8679 293.432V288.273H26.2088V297H24.8679V295.523H24.777C24.5724 295.966 24.2543 296.343 23.8224 296.653C23.3906 296.96 22.8452 297.114 22.1861 297.114C21.6406 297.114 21.1558 296.994 20.7315 296.756C20.3073 296.513 19.974 296.15 19.7315 295.665C19.4891 295.176 19.3679 294.561 19.3679 293.818V288.273H20.7088V293.727C20.7088 294.364 20.8868 294.871 21.2429 295.25C21.6027 295.629 22.0611 295.818 22.6179 295.818C22.9512 295.818 23.2902 295.733 23.6349 295.562C23.9834 295.392 24.2751 295.131 24.5099 294.778C24.7486 294.426 24.8679 293.977 24.8679 293.432ZM35.142 297L32.483 288.273H33.892L35.7784 294.955H35.8693L37.733 288.273H39.1648L41.0057 294.932H41.0966L42.983 288.273H44.392L41.733 297H40.4148L38.5057 290.295H38.3693L36.4602 297H35.142ZM49.4134 297.182C48.6255 297.182 47.9342 296.994 47.3395 296.619C46.7486 296.244 46.2865 295.72 45.9531 295.045C45.6236 294.371 45.4588 293.583 45.4588 292.682C45.4588 291.773 45.6236 290.979 45.9531 290.301C46.2865 289.623 46.7486 289.097 47.3395 288.722C47.9342 288.347 48.6255 288.159 49.4134 288.159C50.2012 288.159 50.8906 288.347 51.4815 288.722C52.0762 289.097 52.5384 289.623 52.8679 290.301C53.2012 290.979 53.3679 291.773 53.3679 292.682C53.3679 293.583 53.2012 294.371 52.8679 295.045C52.5384 295.72 52.0762 296.244 51.4815 296.619C50.8906 296.994 50.2012 297.182 49.4134 297.182ZM49.4134 295.977C50.0118 295.977 50.5043 295.824 50.8906 295.517C51.277 295.21 51.563 294.807 51.7486 294.307C51.9342 293.807 52.027 293.265 52.027 292.682C52.027 292.098 51.9342 291.555 51.7486 291.051C51.563 290.547 51.277 290.14 50.8906 289.83C50.5043 289.519 50.0118 289.364 49.4134 289.364C48.8149 289.364 48.3224 289.519 47.9361 289.83C47.5497 290.14 47.2637 290.547 47.0781 291.051C46.8925 291.555 46.7997 292.098 46.7997 292.682C46.7997 293.265 46.8925 293.807 47.0781 294.307C47.2637 294.807 47.5497 295.21 47.9361 295.517C48.3224 295.824 48.8149 295.977 49.4134 295.977ZM60.9148 293.432V288.273H62.2557V297H60.9148V295.523H60.8239C60.6193 295.966 60.3011 296.343 59.8693 296.653C59.4375 296.96 58.892 297.114 58.233 297.114C57.6875 297.114 57.2027 296.994 56.7784 296.756C56.3542 296.513 56.0208 296.15 55.7784 295.665C55.536 295.176 55.4148 294.561 55.4148 293.818V288.273H56.7557V293.727C56.7557 294.364 56.9337 294.871 57.2898 295.25C57.6496 295.629 58.108 295.818 58.6648 295.818C58.9981 295.818 59.3371 295.733 59.6818 295.562C60.0303 295.392 60.322 295.131 60.5568 294.778C60.7955 294.426 60.9148 293.977 60.9148 293.432ZM66.0526 285.364V297H64.7116V285.364H66.0526ZM71.804 297.182C71.0767 297.182 70.4347 296.998 69.8778 296.631C69.321 296.259 68.8854 295.737 68.571 295.062C68.2566 294.384 68.0994 293.583 68.0994 292.659C68.0994 291.742 68.2566 290.947 68.571 290.273C68.8854 289.598 69.3229 289.078 69.8835 288.71C70.4441 288.343 71.0919 288.159 71.8267 288.159C72.3949 288.159 72.8438 288.254 73.1733 288.443C73.5066 288.629 73.7604 288.841 73.9347 289.08C74.1127 289.314 74.2509 289.508 74.3494 289.659H74.4631V285.364H75.804V297H74.5085V295.659H74.3494C74.2509 295.818 74.1108 296.019 73.929 296.261C73.7472 296.5 73.4877 296.714 73.1506 296.903C72.8134 297.089 72.3646 297.182 71.804 297.182ZM71.9858 295.977C72.5237 295.977 72.9782 295.837 73.3494 295.557C73.7206 295.273 74.0028 294.881 74.196 294.381C74.3892 293.877 74.4858 293.295 74.4858 292.636C74.4858 291.985 74.3911 291.415 74.2017 290.926C74.0123 290.434 73.732 290.051 73.3608 289.778C72.9896 289.502 72.5313 289.364 71.9858 289.364C71.4176 289.364 70.9441 289.509 70.5653 289.801C70.1903 290.089 69.9081 290.481 69.7188 290.977C69.5331 291.47 69.4403 292.023 69.4403 292.636C69.4403 293.258 69.535 293.822 69.7244 294.33C69.9176 294.833 70.2017 295.235 70.5767 295.534C70.9555 295.83 71.4252 295.977 71.9858 295.977ZM84.2869 285.364V297H82.946V285.364H84.2869ZM86.7429 297V288.273H88.0838V297H86.7429ZM87.4247 286.818C87.1634 286.818 86.938 286.729 86.7486 286.551C86.563 286.373 86.4702 286.159 86.4702 285.909C86.4702 285.659 86.563 285.445 86.7486 285.267C86.938 285.089 87.1634 285 87.4247 285C87.6861 285 87.9096 285.089 88.0952 285.267C88.2846 285.445 88.3793 285.659 88.3793 285.909C88.3793 286.159 88.2846 286.373 88.0952 286.551C87.9096 286.729 87.6861 286.818 87.4247 286.818ZM91.7898 293.818L91.767 292.159H92.0398L95.858 288.273H97.517L93.4489 292.386H93.3352L91.7898 293.818ZM90.5398 297V285.364H91.8807V297H90.5398ZM96.0852 297L92.6761 292.682L93.6307 291.75L97.7898 297H96.0852ZM102.543 297.182C101.702 297.182 100.976 296.996 100.366 296.625C99.7604 296.25 99.2926 295.727 98.9631 295.057C98.6373 294.383 98.4744 293.598 98.4744 292.705C98.4744 291.811 98.6373 291.023 98.9631 290.341C99.2926 289.655 99.7509 289.121 100.338 288.739C100.929 288.352 101.618 288.159 102.406 288.159C102.861 288.159 103.31 288.235 103.753 288.386C104.196 288.538 104.599 288.784 104.963 289.125C105.327 289.462 105.616 289.909 105.832 290.466C106.048 291.023 106.156 291.708 106.156 292.523V293.091H99.429V291.932H104.793C104.793 291.439 104.694 291 104.497 290.614C104.304 290.227 104.027 289.922 103.668 289.699C103.312 289.475 102.891 289.364 102.406 289.364C101.872 289.364 101.41 289.496 101.02 289.761C100.634 290.023 100.336 290.364 100.128 290.784C99.9195 291.205 99.8153 291.655 99.8153 292.136V292.909C99.8153 293.568 99.929 294.127 100.156 294.585C100.387 295.04 100.707 295.386 101.116 295.625C101.526 295.86 102.001 295.977 102.543 295.977C102.895 295.977 103.213 295.928 103.497 295.83C103.785 295.727 104.033 295.576 104.241 295.375C104.45 295.17 104.611 294.917 104.724 294.614L106.02 294.977C105.884 295.417 105.654 295.803 105.332 296.136C105.01 296.466 104.613 296.723 104.139 296.909C103.666 297.091 103.134 297.182 102.543 297.182ZM116.491 288.273V289.409H111.969V288.273H116.491ZM113.287 286.182H114.628V294.5C114.628 294.879 114.683 295.163 114.793 295.352C114.906 295.538 115.05 295.663 115.224 295.727C115.402 295.788 115.59 295.818 115.787 295.818C115.935 295.818 116.056 295.811 116.151 295.795C116.245 295.777 116.321 295.761 116.378 295.75L116.651 296.955C116.56 296.989 116.433 297.023 116.27 297.057C116.107 297.095 115.901 297.114 115.651 297.114C115.272 297.114 114.901 297.032 114.537 296.869C114.177 296.706 113.878 296.458 113.639 296.125C113.404 295.792 113.287 295.371 113.287 294.864V286.182ZM121.96 297.182C121.172 297.182 120.481 296.994 119.886 296.619C119.295 296.244 118.833 295.72 118.5 295.045C118.17 294.371 118.006 293.583 118.006 292.682C118.006 291.773 118.17 290.979 118.5 290.301C118.833 289.623 119.295 289.097 119.886 288.722C120.481 288.347 121.172 288.159 121.96 288.159C122.748 288.159 123.438 288.347 124.028 288.722C124.623 289.097 125.085 289.623 125.415 290.301C125.748 290.979 125.915 291.773 125.915 292.682C125.915 293.583 125.748 294.371 125.415 295.045C125.085 295.72 124.623 296.244 124.028 296.619C123.438 296.994 122.748 297.182 121.96 297.182ZM121.96 295.977C122.559 295.977 123.051 295.824 123.438 295.517C123.824 295.21 124.11 294.807 124.295 294.307C124.481 293.807 124.574 293.265 124.574 292.682C124.574 292.098 124.481 291.555 124.295 291.051C124.11 290.547 123.824 290.14 123.438 289.83C123.051 289.519 122.559 289.364 121.96 289.364C121.362 289.364 120.869 289.519 120.483 289.83C120.097 290.14 119.811 290.547 119.625 291.051C119.439 291.555 119.347 292.098 119.347 292.682C119.347 293.265 119.439 293.807 119.625 294.307C119.811 294.807 120.097 295.21 120.483 295.517C120.869 295.824 121.362 295.977 121.96 295.977ZM132.643 297V285.364H133.984V289.659H134.098C134.196 289.508 134.333 289.314 134.507 289.08C134.685 288.841 134.939 288.629 135.268 288.443C135.602 288.254 136.053 288.159 136.621 288.159C137.356 288.159 138.003 288.343 138.564 288.71C139.125 289.078 139.562 289.598 139.876 290.273C140.191 290.947 140.348 291.742 140.348 292.659C140.348 293.583 140.191 294.384 139.876 295.062C139.562 295.737 139.126 296.259 138.57 296.631C138.013 296.998 137.371 297.182 136.643 297.182C136.083 297.182 135.634 297.089 135.297 296.903C134.96 296.714 134.7 296.5 134.518 296.261C134.337 296.019 134.196 295.818 134.098 295.659H133.939V297H132.643ZM133.962 292.636C133.962 293.295 134.058 293.877 134.251 294.381C134.445 294.881 134.727 295.273 135.098 295.557C135.469 295.837 135.924 295.977 136.462 295.977C137.022 295.977 137.49 295.83 137.865 295.534C138.244 295.235 138.528 294.833 138.717 294.33C138.911 293.822 139.007 293.258 139.007 292.636C139.007 292.023 138.912 291.47 138.723 290.977C138.537 290.481 138.255 290.089 137.876 289.801C137.501 289.509 137.03 289.364 136.462 289.364C135.916 289.364 135.458 289.502 135.087 289.778C134.715 290.051 134.435 290.434 134.246 290.926C134.056 291.415 133.962 291.985 133.962 292.636ZM146.058 297.182C145.217 297.182 144.492 296.996 143.882 296.625C143.276 296.25 142.808 295.727 142.479 295.057C142.153 294.383 141.99 293.598 141.99 292.705C141.99 291.811 142.153 291.023 142.479 290.341C142.808 289.655 143.267 289.121 143.854 288.739C144.445 288.352 145.134 288.159 145.922 288.159C146.376 288.159 146.825 288.235 147.268 288.386C147.712 288.538 148.115 288.784 148.479 289.125C148.842 289.462 149.132 289.909 149.348 290.466C149.564 291.023 149.672 291.708 149.672 292.523V293.091H142.945V291.932H148.308C148.308 291.439 148.21 291 148.013 290.614C147.82 290.227 147.543 289.922 147.183 289.699C146.827 289.475 146.407 289.364 145.922 289.364C145.388 289.364 144.926 289.496 144.536 289.761C144.149 290.023 143.852 290.364 143.643 290.784C143.435 291.205 143.331 291.655 143.331 292.136V292.909C143.331 293.568 143.445 294.127 143.672 294.585C143.903 295.04 144.223 295.386 144.632 295.625C145.041 295.86 145.517 295.977 146.058 295.977C146.411 295.977 146.729 295.928 147.013 295.83C147.301 295.727 147.549 295.576 147.757 295.375C147.965 295.17 148.126 294.917 148.24 294.614L149.536 294.977C149.399 295.417 149.17 295.803 148.848 296.136C148.526 296.466 148.128 296.723 147.655 296.909C147.181 297.091 146.649 297.182 146.058 297.182ZM156.212 297V288.273H157.507V289.636H157.621C157.803 289.17 158.096 288.809 158.501 288.551C158.907 288.29 159.393 288.159 159.962 288.159C160.537 288.159 161.017 288.29 161.399 288.551C161.786 288.809 162.087 289.17 162.303 289.636H162.393C162.617 289.186 162.952 288.828 163.399 288.562C163.846 288.294 164.382 288.159 165.007 288.159C165.787 288.159 166.426 288.403 166.922 288.892C167.418 289.377 167.666 290.133 167.666 291.159V297H166.325V291.159C166.325 290.515 166.149 290.055 165.797 289.778C165.445 289.502 165.03 289.364 164.553 289.364C163.939 289.364 163.464 289.549 163.126 289.92C162.789 290.288 162.621 290.754 162.621 291.318V297H161.257V291.023C161.257 290.527 161.096 290.127 160.774 289.824C160.452 289.517 160.037 289.364 159.53 289.364C159.181 289.364 158.856 289.456 158.553 289.642C158.253 289.828 158.011 290.085 157.825 290.415C157.643 290.741 157.553 291.117 157.553 291.545V297H156.212ZM173.663 297.182C172.875 297.182 172.184 296.994 171.589 296.619C170.999 296.244 170.536 295.72 170.203 295.045C169.874 294.371 169.709 293.583 169.709 292.682C169.709 291.773 169.874 290.979 170.203 290.301C170.536 289.623 170.999 289.097 171.589 288.722C172.184 288.347 172.875 288.159 173.663 288.159C174.451 288.159 175.141 288.347 175.732 288.722C176.326 289.097 176.788 289.623 177.118 290.301C177.451 290.979 177.618 291.773 177.618 292.682C177.618 293.583 177.451 294.371 177.118 295.045C176.788 295.72 176.326 296.244 175.732 296.619C175.141 296.994 174.451 297.182 173.663 297.182ZM173.663 295.977C174.262 295.977 174.754 295.824 175.141 295.517C175.527 295.21 175.813 294.807 175.999 294.307C176.184 293.807 176.277 293.265 176.277 292.682C176.277 292.098 176.184 291.555 175.999 291.051C175.813 290.547 175.527 290.14 175.141 289.83C174.754 289.519 174.262 289.364 173.663 289.364C173.065 289.364 172.572 289.519 172.186 289.83C171.8 290.14 171.514 290.547 171.328 291.051C171.143 291.555 171.05 292.098 171.05 292.682C171.05 293.265 171.143 293.807 171.328 294.307C171.514 294.807 171.8 295.21 172.186 295.517C172.572 295.824 173.065 295.977 173.663 295.977ZM182.96 297.182C182.233 297.182 181.591 296.998 181.034 296.631C180.477 296.259 180.042 295.737 179.727 295.062C179.413 294.384 179.256 293.583 179.256 292.659C179.256 291.742 179.413 290.947 179.727 290.273C180.042 289.598 180.479 289.078 181.04 288.71C181.6 288.343 182.248 288.159 182.983 288.159C183.551 288.159 184 288.254 184.33 288.443C184.663 288.629 184.917 288.841 185.091 289.08C185.269 289.314 185.407 289.508 185.506 289.659H185.619V285.364H186.96V297H185.665V295.659H185.506C185.407 295.818 185.267 296.019 185.085 296.261C184.903 296.5 184.644 296.714 184.307 296.903C183.97 297.089 183.521 297.182 182.96 297.182ZM183.142 295.977C183.68 295.977 184.134 295.837 184.506 295.557C184.877 295.273 185.159 294.881 185.352 294.381C185.545 293.877 185.642 293.295 185.642 292.636C185.642 291.985 185.547 291.415 185.358 290.926C185.169 290.434 184.888 290.051 184.517 289.778C184.146 289.502 183.688 289.364 183.142 289.364C182.574 289.364 182.1 289.509 181.722 289.801C181.347 290.089 181.064 290.481 180.875 290.977C180.689 291.47 180.597 292.023 180.597 292.636C180.597 293.258 180.691 293.822 180.881 294.33C181.074 294.833 181.358 295.235 181.733 295.534C182.112 295.83 182.581 295.977 183.142 295.977ZM193.261 297.182C192.42 297.182 191.695 296.996 191.085 296.625C190.479 296.25 190.011 295.727 189.682 295.057C189.356 294.383 189.193 293.598 189.193 292.705C189.193 291.811 189.356 291.023 189.682 290.341C190.011 289.655 190.47 289.121 191.057 288.739C191.648 288.352 192.337 288.159 193.125 288.159C193.58 288.159 194.028 288.235 194.472 288.386C194.915 288.538 195.318 288.784 195.682 289.125C196.045 289.462 196.335 289.909 196.551 290.466C196.767 291.023 196.875 291.708 196.875 292.523V293.091H190.148V291.932H195.511C195.511 291.439 195.413 291 195.216 290.614C195.023 290.227 194.746 289.922 194.386 289.699C194.03 289.475 193.61 289.364 193.125 289.364C192.591 289.364 192.129 289.496 191.739 289.761C191.352 290.023 191.055 290.364 190.847 290.784C190.638 291.205 190.534 291.655 190.534 292.136V292.909C190.534 293.568 190.648 294.127 190.875 294.585C191.106 295.04 191.426 295.386 191.835 295.625C192.244 295.86 192.72 295.977 193.261 295.977C193.614 295.977 193.932 295.928 194.216 295.83C194.504 295.727 194.752 295.576 194.96 295.375C195.169 295.17 195.33 294.917 195.443 294.614L196.739 294.977C196.602 295.417 196.373 295.803 196.051 296.136C195.729 296.466 195.331 296.723 194.858 296.909C194.384 297.091 193.852 297.182 193.261 297.182ZM198.915 297V288.273H200.21V289.591H200.301C200.46 289.159 200.748 288.809 201.165 288.54C201.581 288.271 202.051 288.136 202.574 288.136C202.672 288.136 202.795 288.138 202.943 288.142C203.091 288.146 203.203 288.152 203.278 288.159V289.523C203.233 289.511 203.129 289.494 202.966 289.472C202.807 289.445 202.638 289.432 202.46 289.432C202.036 289.432 201.657 289.521 201.324 289.699C200.994 289.873 200.733 290.116 200.54 290.426C200.35 290.733 200.256 291.083 200.256 291.477V297H198.915ZM206.209 291.75V297H204.868V288.273H206.163V289.636H206.277C206.482 289.193 206.792 288.837 207.209 288.568C207.625 288.295 208.163 288.159 208.822 288.159C209.413 288.159 209.93 288.28 210.374 288.523C210.817 288.761 211.161 289.125 211.408 289.614C211.654 290.098 211.777 290.712 211.777 291.455V297H210.436V291.545C210.436 290.86 210.258 290.326 209.902 289.943C209.546 289.557 209.057 289.364 208.436 289.364C208.008 289.364 207.625 289.456 207.288 289.642C206.955 289.828 206.692 290.098 206.499 290.455C206.305 290.811 206.209 291.242 206.209 291.75ZM221.295 297.205C220.742 297.205 220.241 297.1 219.79 296.892C219.339 296.68 218.981 296.375 218.716 295.977C218.451 295.576 218.318 295.091 218.318 294.523C218.318 294.023 218.417 293.617 218.614 293.307C218.811 292.992 219.074 292.746 219.403 292.568C219.733 292.39 220.097 292.258 220.494 292.17C220.896 292.08 221.299 292.008 221.705 291.955C222.235 291.886 222.665 291.835 222.994 291.801C223.328 291.763 223.57 291.701 223.722 291.614C223.877 291.527 223.955 291.375 223.955 291.159V291.114C223.955 290.553 223.801 290.117 223.494 289.807C223.191 289.496 222.731 289.341 222.114 289.341C221.473 289.341 220.972 289.481 220.608 289.761C220.244 290.042 219.989 290.341 219.841 290.659L218.568 290.205C218.795 289.674 219.098 289.261 219.477 288.966C219.86 288.667 220.277 288.458 220.727 288.341C221.182 288.22 221.629 288.159 222.068 288.159C222.348 288.159 222.67 288.193 223.034 288.261C223.402 288.326 223.756 288.46 224.097 288.665C224.441 288.869 224.727 289.178 224.955 289.591C225.182 290.004 225.295 290.557 225.295 291.25V297H223.955V295.818H223.886C223.795 296.008 223.644 296.21 223.432 296.426C223.22 296.642 222.938 296.826 222.585 296.977C222.233 297.129 221.803 297.205 221.295 297.205ZM221.5 296C222.03 296 222.477 295.896 222.841 295.688C223.208 295.479 223.485 295.21 223.67 294.881C223.86 294.551 223.955 294.205 223.955 293.841V292.614C223.898 292.682 223.773 292.744 223.58 292.801C223.39 292.854 223.17 292.902 222.92 292.943C222.674 292.981 222.434 293.015 222.199 293.045C221.968 293.072 221.78 293.095 221.636 293.114C221.288 293.159 220.962 293.233 220.659 293.335C220.36 293.434 220.117 293.583 219.932 293.784C219.75 293.981 219.659 294.25 219.659 294.591C219.659 295.057 219.831 295.409 220.176 295.648C220.525 295.883 220.966 296 221.5 296ZM229.084 291.75V297H227.743V288.273H229.038V289.636H229.152C229.357 289.193 229.667 288.837 230.084 288.568C230.5 288.295 231.038 288.159 231.697 288.159C232.288 288.159 232.805 288.28 233.249 288.523C233.692 288.761 234.036 289.125 234.283 289.614C234.529 290.098 234.652 290.712 234.652 291.455V297H233.311V291.545C233.311 290.86 233.133 290.326 232.777 289.943C232.421 289.557 231.932 289.364 231.311 289.364C230.883 289.364 230.5 289.456 230.163 289.642C229.83 289.828 229.567 290.098 229.374 290.455C229.18 290.811 229.084 291.242 229.084 291.75ZM240.398 297.182C239.67 297.182 239.028 296.998 238.472 296.631C237.915 296.259 237.479 295.737 237.165 295.062C236.85 294.384 236.693 293.583 236.693 292.659C236.693 291.742 236.85 290.947 237.165 290.273C237.479 289.598 237.917 289.078 238.477 288.71C239.038 288.343 239.686 288.159 240.42 288.159C240.989 288.159 241.438 288.254 241.767 288.443C242.1 288.629 242.354 288.841 242.528 289.08C242.706 289.314 242.845 289.508 242.943 289.659H243.057V285.364H244.398V297H243.102V295.659H242.943C242.845 295.818 242.705 296.019 242.523 296.261C242.341 296.5 242.081 296.714 241.744 296.903C241.407 297.089 240.958 297.182 240.398 297.182ZM240.58 295.977C241.117 295.977 241.572 295.837 241.943 295.557C242.314 295.273 242.597 294.881 242.79 294.381C242.983 293.877 243.08 293.295 243.08 292.636C243.08 291.985 242.985 291.415 242.795 290.926C242.606 290.434 242.326 290.051 241.955 289.778C241.583 289.502 241.125 289.364 240.58 289.364C240.011 289.364 239.538 289.509 239.159 289.801C238.784 290.089 238.502 290.481 238.312 290.977C238.127 291.47 238.034 292.023 238.034 292.636C238.034 293.258 238.129 293.822 238.318 294.33C238.511 294.833 238.795 295.235 239.17 295.534C239.549 295.83 240.019 295.977 240.58 295.977ZM4.77273 318.182C3.95455 318.182 3.25 317.989 2.65909 317.602C2.06818 317.216 1.61364 316.684 1.29545 316.006C0.977273 315.328 0.818182 314.553 0.818182 313.682C0.818182 312.795 0.981061 312.013 1.30682 311.335C1.63636 310.653 2.0947 310.121 2.68182 309.739C3.27273 309.352 3.96212 309.159 4.75 309.159C5.36364 309.159 5.91667 309.273 6.40909 309.5C6.90152 309.727 7.30492 310.045 7.61932 310.455C7.93371 310.864 8.12879 311.341 8.20455 311.886H6.86364C6.76136 311.489 6.53409 311.136 6.18182 310.83C5.83333 310.519 5.36364 310.364 4.77273 310.364C4.25 310.364 3.79167 310.5 3.39773 310.773C3.00758 311.042 2.70265 311.422 2.48295 311.915C2.26705 312.403 2.15909 312.977 2.15909 313.636C2.15909 314.311 2.26515 314.898 2.47727 315.398C2.69318 315.898 2.99621 316.286 3.38636 316.562C3.7803 316.839 4.24242 316.977 4.77273 316.977C5.12121 316.977 5.4375 316.917 5.72159 316.795C6.00568 316.674 6.24621 316.5 6.44318 316.273C6.64015 316.045 6.7803 315.773 6.86364 315.455H8.20455C8.12879 315.97 7.94129 316.434 7.64205 316.847C7.34659 317.256 6.95455 317.581 6.46591 317.824C5.98106 318.062 5.41667 318.182 4.77273 318.182ZM13.7102 318.182C12.9223 318.182 12.2311 317.994 11.6364 317.619C11.0455 317.244 10.5833 316.72 10.25 316.045C9.92045 315.371 9.75568 314.583 9.75568 313.682C9.75568 312.773 9.92045 311.979 10.25 311.301C10.5833 310.623 11.0455 310.097 11.6364 309.722C12.2311 309.347 12.9223 309.159 13.7102 309.159C14.4981 309.159 15.1875 309.347 15.7784 309.722C16.3731 310.097 16.8352 310.623 17.1648 311.301C17.4981 311.979 17.6648 312.773 17.6648 313.682C17.6648 314.583 17.4981 315.371 17.1648 316.045C16.8352 316.72 16.3731 317.244 15.7784 317.619C15.1875 317.994 14.4981 318.182 13.7102 318.182ZM13.7102 316.977C14.3087 316.977 14.8011 316.824 15.1875 316.517C15.5739 316.21 15.8598 315.807 16.0455 315.307C16.2311 314.807 16.3239 314.265 16.3239 313.682C16.3239 313.098 16.2311 312.555 16.0455 312.051C15.8598 311.547 15.5739 311.14 15.1875 310.83C14.8011 310.519 14.3087 310.364 13.7102 310.364C13.1117 310.364 12.6193 310.519 12.233 310.83C11.8466 311.14 11.5606 311.547 11.375 312.051C11.1894 312.555 11.0966 313.098 11.0966 313.682C11.0966 314.265 11.1894 314.807 11.375 315.307C11.5606 315.807 11.8466 316.21 12.233 316.517C12.6193 316.824 13.1117 316.977 13.7102 316.977ZM19.7116 318V309.273H21.0071V310.636H21.1207C21.3026 310.17 21.5961 309.809 22.0014 309.551C22.4067 309.29 22.8935 309.159 23.4616 309.159C24.0374 309.159 24.5166 309.29 24.8991 309.551C25.2855 309.809 25.5866 310.17 25.8026 310.636H25.8935C26.117 310.186 26.4522 309.828 26.8991 309.562C27.3461 309.294 27.8821 309.159 28.5071 309.159C29.2874 309.159 29.9257 309.403 30.4219 309.892C30.9181 310.377 31.1662 311.133 31.1662 312.159V318H29.8253V312.159C29.8253 311.515 29.6491 311.055 29.2969 310.778C28.9446 310.502 28.5298 310.364 28.0526 310.364C27.4389 310.364 26.9635 310.549 26.6264 310.92C26.2893 311.288 26.1207 311.754 26.1207 312.318V318H24.7571V312.023C24.7571 311.527 24.5961 311.127 24.2741 310.824C23.9522 310.517 23.5374 310.364 23.0298 310.364C22.6813 310.364 22.3556 310.456 22.0526 310.642C21.7533 310.828 21.5109 311.085 21.3253 311.415C21.1435 311.741 21.0526 312.117 21.0526 312.545V318H19.7116ZM37.5043 309.273V310.409H32.7997V309.273H37.5043ZM34.2088 318V308.068C34.2088 307.568 34.3262 307.152 34.5611 306.818C34.7959 306.485 35.1009 306.235 35.4759 306.068C35.8509 305.902 36.2467 305.818 36.6634 305.818C36.9929 305.818 37.2618 305.845 37.4702 305.898C37.6785 305.951 37.8338 306 37.9361 306.045L37.5497 307.205C37.4815 307.182 37.3868 307.153 37.2656 307.119C37.1482 307.085 36.9929 307.068 36.7997 307.068C36.3565 307.068 36.0365 307.18 35.8395 307.403C35.6463 307.627 35.5497 307.955 35.5497 308.386V318H34.2088ZM42.5696 318.182C41.7817 318.182 41.0904 317.994 40.4957 317.619C39.9048 317.244 39.4427 316.72 39.1094 316.045C38.7798 315.371 38.6151 314.583 38.6151 313.682C38.6151 312.773 38.7798 311.979 39.1094 311.301C39.4427 310.623 39.9048 310.097 40.4957 309.722C41.0904 309.347 41.7817 309.159 42.5696 309.159C43.3575 309.159 44.0469 309.347 44.6378 309.722C45.2325 310.097 45.6946 310.623 46.0241 311.301C46.3575 311.979 46.5241 312.773 46.5241 313.682C46.5241 314.583 46.3575 315.371 46.0241 316.045C45.6946 316.72 45.2325 317.244 44.6378 317.619C44.0469 317.994 43.3575 318.182 42.5696 318.182ZM42.5696 316.977C43.1681 316.977 43.6605 316.824 44.0469 316.517C44.4332 316.21 44.7192 315.807 44.9048 315.307C45.0904 314.807 45.1832 314.265 45.1832 313.682C45.1832 313.098 45.0904 312.555 44.9048 312.051C44.7192 311.547 44.4332 311.14 44.0469 310.83C43.6605 310.519 43.1681 310.364 42.5696 310.364C41.9711 310.364 41.4787 310.519 41.0923 310.83C40.706 311.14 40.42 311.547 40.2344 312.051C40.0488 312.555 39.956 313.098 39.956 313.682C39.956 314.265 40.0488 314.807 40.2344 315.307C40.42 315.807 40.706 316.21 41.0923 316.517C41.4787 316.824 41.9711 316.977 42.5696 316.977ZM48.571 318V309.273H49.8665V310.591H49.9574C50.1165 310.159 50.4044 309.809 50.821 309.54C51.2377 309.271 51.7074 309.136 52.2301 309.136C52.3286 309.136 52.4517 309.138 52.5994 309.142C52.7472 309.146 52.8589 309.152 52.9347 309.159V310.523C52.8892 310.511 52.785 310.494 52.6222 310.472C52.4631 310.445 52.2945 310.432 52.1165 310.432C51.6922 310.432 51.3134 310.521 50.9801 310.699C50.6506 310.873 50.3892 311.116 50.196 311.426C50.0066 311.733 49.9119 312.083 49.9119 312.477V318H48.571ZM58.8665 309.273V310.409H54.3438V309.273H58.8665ZM55.6619 307.182H57.0028V315.5C57.0028 315.879 57.0578 316.163 57.1676 316.352C57.2813 316.538 57.4252 316.663 57.5994 316.727C57.7775 316.788 57.965 316.818 58.1619 316.818C58.3097 316.818 58.4309 316.811 58.5256 316.795C58.6203 316.777 58.696 316.761 58.7528 316.75L59.0256 317.955C58.9347 317.989 58.8078 318.023 58.6449 318.057C58.482 318.095 58.2756 318.114 58.0256 318.114C57.6468 318.114 57.2756 318.032 56.9119 317.869C56.5521 317.706 56.2528 317.458 56.0142 317.125C55.7794 316.792 55.6619 316.371 55.6619 315.864V307.182ZM63.4517 318.205C62.8987 318.205 62.3968 318.1 61.946 317.892C61.4953 317.68 61.1373 317.375 60.8722 316.977C60.607 316.576 60.4744 316.091 60.4744 315.523C60.4744 315.023 60.5729 314.617 60.7699 314.307C60.9669 313.992 61.2301 313.746 61.5597 313.568C61.8892 313.39 62.2528 313.258 62.6506 313.17C63.0521 313.08 63.4555 313.008 63.8608 312.955C64.3911 312.886 64.821 312.835 65.1506 312.801C65.4839 312.763 65.7263 312.701 65.8778 312.614C66.0331 312.527 66.1108 312.375 66.1108 312.159V312.114C66.1108 311.553 65.9574 311.117 65.6506 310.807C65.3475 310.496 64.8873 310.341 64.2699 310.341C63.6297 310.341 63.1278 310.481 62.7642 310.761C62.4006 311.042 62.1449 311.341 61.9972 311.659L60.7244 311.205C60.9517 310.674 61.2547 310.261 61.6335 309.966C62.0161 309.667 62.4328 309.458 62.8835 309.341C63.3381 309.22 63.785 309.159 64.2244 309.159C64.5047 309.159 64.8267 309.193 65.1903 309.261C65.5578 309.326 65.9119 309.46 66.2528 309.665C66.5975 309.869 66.8835 310.178 67.1108 310.591C67.3381 311.004 67.4517 311.557 67.4517 312.25V318H66.1108V316.818H66.0426C65.9517 317.008 65.8002 317.21 65.5881 317.426C65.3759 317.642 65.0938 317.826 64.7415 317.977C64.3892 318.129 63.9593 318.205 63.4517 318.205ZM63.6562 317C64.1866 317 64.6335 316.896 64.9972 316.688C65.3646 316.479 65.6411 316.21 65.8267 315.881C66.0161 315.551 66.1108 315.205 66.1108 314.841V313.614C66.054 313.682 65.929 313.744 65.7358 313.801C65.5464 313.854 65.3267 313.902 65.0767 313.943C64.8305 313.981 64.59 314.015 64.3551 314.045C64.1241 314.072 63.9366 314.095 63.7926 314.114C63.4441 314.159 63.1184 314.233 62.8153 314.335C62.5161 314.434 62.2737 314.583 62.0881 314.784C61.9063 314.981 61.8153 315.25 61.8153 315.591C61.8153 316.057 61.9877 316.409 62.3324 316.648C62.6809 316.883 63.1222 317 63.6562 317ZM70.081 318V306.364H71.4219V310.659H71.5355C71.634 310.508 71.7704 310.314 71.9446 310.08C72.1226 309.841 72.3764 309.629 72.706 309.443C73.0393 309.254 73.4901 309.159 74.0582 309.159C74.7931 309.159 75.4408 309.343 76.0014 309.71C76.562 310.078 76.9995 310.598 77.3139 311.273C77.6283 311.947 77.7855 312.742 77.7855 313.659C77.7855 314.583 77.6283 315.384 77.3139 316.062C76.9995 316.737 76.5639 317.259 76.0071 317.631C75.4503 317.998 74.8082 318.182 74.081 318.182C73.5204 318.182 73.0715 318.089 72.7344 317.903C72.3973 317.714 72.1378 317.5 71.956 317.261C71.7741 317.019 71.634 316.818 71.5355 316.659H71.3764V318H70.081ZM71.3991 313.636C71.3991 314.295 71.4957 314.877 71.6889 315.381C71.8821 315.881 72.1643 316.273 72.5355 316.557C72.9067 316.837 73.3613 316.977 73.8991 316.977C74.4598 316.977 74.9276 316.83 75.3026 316.534C75.6813 316.235 75.9654 315.833 76.1548 315.33C76.348 314.822 76.4446 314.258 76.4446 313.636C76.4446 313.023 76.3499 312.47 76.1605 311.977C75.9749 311.481 75.6927 311.089 75.3139 310.801C74.9389 310.509 74.4673 310.364 73.8991 310.364C73.3537 310.364 72.8954 310.502 72.5241 310.778C72.1529 311.051 71.8726 311.434 71.6832 311.926C71.4938 312.415 71.3991 312.985 71.3991 313.636ZM81.1776 306.364V318H79.8366V306.364H81.1776ZM87.2926 318.182C86.4517 318.182 85.7263 317.996 85.1165 317.625C84.5104 317.25 84.0426 316.727 83.7131 316.057C83.3873 315.383 83.2244 314.598 83.2244 313.705C83.2244 312.811 83.3873 312.023 83.7131 311.341C84.0426 310.655 84.5009 310.121 85.0881 309.739C85.679 309.352 86.3684 309.159 87.1562 309.159C87.6108 309.159 88.0597 309.235 88.5028 309.386C88.946 309.538 89.3494 309.784 89.7131 310.125C90.0767 310.462 90.3665 310.909 90.5824 311.466C90.7983 312.023 90.9062 312.708 90.9062 313.523V314.091H84.179V312.932H89.5426C89.5426 312.439 89.4441 312 89.2472 311.614C89.054 311.227 88.7775 310.922 88.4176 310.699C88.0616 310.475 87.6411 310.364 87.1562 310.364C86.6222 310.364 86.16 310.496 85.7699 310.761C85.3835 311.023 85.0862 311.364 84.8778 311.784C84.6695 312.205 84.5653 312.655 84.5653 313.136V313.909C84.5653 314.568 84.679 315.127 84.9062 315.585C85.1373 316.04 85.4574 316.386 85.8665 316.625C86.2756 316.86 86.7509 316.977 87.2926 316.977C87.6449 316.977 87.9631 316.928 88.2472 316.83C88.535 316.727 88.7831 316.576 88.9915 316.375C89.1998 316.17 89.3608 315.917 89.4744 315.614L90.7699 315.977C90.6335 316.417 90.4044 316.803 90.0824 317.136C89.7604 317.466 89.3627 317.723 88.8892 317.909C88.4157 318.091 87.8835 318.182 87.2926 318.182Z" fill="#151515"/>
</svg>
